<svg width="24" height="25" viewBox="0 0 24 25" fill="none" xmlns="http://www.w3.org/2000/svg">
<path d="M3.83301 4.85132H8.32295L9.77016 8.46935L7.44528 10.0193C7.16708 10.2047 6.99998 10.517 6.99998 10.8513C7.00252 10.9449 6.99998 10.8523 6.99998 10.8523L6.99998 10.8534L6.99999 10.8556L7.00002 10.8606L7.00017 10.873C7.00032 10.8822 7.00057 10.8934 7.00099 10.9065C7.00184 10.9327 7.00337 10.9666 7.0061 11.0077C7.01158 11.0898 7.02189 11.2008 7.04128 11.3365C7.08004 11.6078 7.15526 11.9794 7.3013 12.4175C7.59453 13.2973 8.17071 14.4363 9.29288 15.5584C10.415 16.6806 11.554 17.2568 12.4338 17.55C12.8719 17.696 13.2435 17.7713 13.5148 17.81C13.6505 17.8294 13.7615 17.8397 13.8436 17.8452C13.8847 17.8479 13.9186 17.8495 13.9448 17.8503C13.9579 17.8507 13.9691 17.851 13.9783 17.8511L13.9906 17.8513L13.9957 17.8513L13.9979 17.8513L13.999 17.8513C13.999 17.8513 14.1106 17.8452 14 17.8513C14.3788 17.8513 14.725 17.6373 14.8944 17.2985L15.5641 15.9591L20 16.6984V21.0183C17.8889 21.3236 12.1874 21.6245 7.70709 17.1442C3.22679 12.6639 3.5277 6.96242 3.83301 4.85132ZM9.07363 11.3374L10.8796 10.1334C11.6665 9.60883 11.9784 8.6047 11.6271 7.72657L10.1799 4.10854C9.87617 3.34922 9.14076 2.85132 8.32295 2.85132H3.78076C2.87225 2.85132 2.01707 3.48248 1.86792 4.46822C1.52861 6.71082 1.06677 13.3323 6.29288 18.5584C11.519 23.7845 18.1405 23.3227 20.3831 22.9834C21.3688 22.8342 22 21.9791 22 21.0705V16.6984C22 15.7208 21.2932 14.8864 20.3288 14.7257L15.8929 13.9863C15.0268 13.842 14.1679 14.2794 13.7753 15.0647L13.4288 15.7577C13.3199 15.731 13.1983 15.6967 13.0662 15.6526C12.4459 15.4459 11.5849 15.022 10.7071 14.1442C9.82925 13.2664 9.40543 12.4054 9.19867 11.7851C9.14279 11.6175 9.10257 11.4668 9.07363 11.3374Z" fill="#F8F9F5" fill-opacity="0.5"/>
</svg>
