<?xml version="1.0" standalone="no"?>
<!DOCTYPE svg PUBLIC "-//W3C//DTD SVG 20010904//EN"
 "http://www.w3.org/TR/2001/REC-SVG-20010904/DTD/svg10.dtd">
<svg version="1.0" xmlns="http://www.w3.org/2000/svg"
 width="278.000000pt" height="298.000000pt" viewBox="0 0 278.000000 298.000000"
 preserveAspectRatio="xMidYMid meet">

<g transform="translate(0.000000,298.000000) scale(0.100000,-0.100000)"
fill="#000000" stroke="none">
<path d="M1290 2555 l0 -65 130 0 130 0 0 -120 0 -120 185 0 185 0 0 65 0 65
-125 0 -125 0 0 120 0 120 -190 0 -190 0 0 -65z"/>
<path d="M1050 2385 l0 -185 120 0 120 0 0 -130 0 -130 65 0 65 0 0 190 0 190
-120 0 -120 0 0 125 0 125 -65 0 -65 0 0 -185z"/>
<path d="M2060 2255 l0 -125 -120 0 -120 0 0 -190 0 -190 60 0 60 0 0 125 0
125 120 0 120 0 0 190 0 190 -60 0 -60 0 0 -125z"/>
<path d="M530 2310 l0 -60 125 0 125 0 0 -145 0 -145 185 0 185 0 0 60 0 60
-120 0 -120 0 0 145 0 145 -190 0 -190 0 0 -60z"/>
<path d="M550 1985 l0 -125 -130 0 -130 0 0 -190 0 -190 65 0 65 0 0 130 0
130 125 0 125 0 0 185 0 185 -60 0 -60 0 0 -125z"/>
<path d="M1540 1975 l0 -124 -117 -3 -118 -3 -3 -147 -3 -148 61 0 60 0 0 39
c0 21 3 59 6 85 l7 46 118 0 119 0 0 190 0 190 -65 0 -65 0 0 -125z"/>
<path d="M810 1795 l0 -65 125 0 125 0 0 -85 0 -85 65 0 65 0 0 150 0 150
-190 0 -190 0 0 -65z"/>
<path d="M2060 1740 l0 -120 -155 0 -155 0 0 -65 0 -65 215 0 215 0 0 120 0
120 100 0 100 0 0 65 0 65 -160 0 -160 0 0 -120z"/>
<path d="M2300 1490 l0 -130 -120 0 -120 0 0 -185 0 -185 65 0 65 0 0 125 0
125 120 0 120 0 0 190 0 190 -65 0 -65 0 0 -130z"/>
<path d="M550 1490 l0 -120 -105 0 -105 0 0 -65 0 -65 165 0 165 0 0 120 0
120 150 0 150 0 0 65 0 65 -210 0 -210 0 0 -120z"/>
<path d="M1530 1395 l0 -145 190 0 190 0 0 65 0 65 -125 0 -125 0 0 80 0 80
-65 0 -65 0 0 -145z"/>
<path d="M1050 1210 l0 -210 65 0 65 0 0 150 0 150 120 0 120 0 0 60 0 60
-185 0 -185 0 0 -210z"/>
<path d="M780 1220 l0 -120 -120 0 -120 0 0 -190 0 -190 60 0 60 0 0 125 0
125 120 0 120 0 0 185 0 185 -60 0 -60 0 0 -120z"/>
<path d="M1300 970 l0 -190 120 0 120 0 0 -125 0 -125 65 0 65 0 0 185 0 185
-120 0 -120 0 0 130 0 130 -65 0 -65 0 0 -190z"/>
<path d="M1570 1085 l0 -65 120 0 120 0 0 -145 0 -145 190 0 190 0 0 60 0 60
-125 0 -125 0 0 150 0 150 -185 0 -185 0 0 -65z"/>
<path d="M800 785 l0 -65 125 0 125 0 0 -120 0 -120 190 0 190 0 0 65 0 65
-130 0 -130 0 0 120 0 120 -185 0 -185 0 0 -65z"/>
</g>
</svg>
