<svg width="24" height="25" viewBox="0 0 24 25" fill="none" xmlns="http://www.w3.org/2000/svg">
<path d="M12 2.85132C7.6 2.85132 4 6.45132 4 10.8513C4 16.2513 11 22.3513 11.3 22.6513C11.5 22.7513 11.8 22.8513 12 22.8513C12.2 22.8513 12.5 22.7513 12.7 22.6513C13 22.3513 20 16.2513 20 10.8513C20 6.45132 16.4 2.85132 12 2.85132ZM12 20.5513C9.9 18.5513 6 14.2513 6 10.8513C6 7.55132 8.7 4.85132 12 4.85132C15.3 4.85132 18 7.55132 18 10.8513C18 14.1513 14.1 18.5513 12 20.5513ZM12 6.85132C9.8 6.85132 8 8.65132 8 10.8513C8 13.0513 9.8 14.8513 12 14.8513C14.2 14.8513 16 13.0513 16 10.8513C16 8.65132 14.2 6.85132 12 6.85132ZM12 12.8513C10.9 12.8513 10 11.9513 10 10.8513C10 9.75132 10.9 8.85132 12 8.85132C13.1 8.85132 14 9.75132 14 10.8513C14 11.9513 13.1 12.8513 12 12.8513Z" fill="#F8F9F5" fill-opacity="0.5"/>
</svg>
