<?xml version="1.0" standalone="no"?>
<!DOCTYPE svg PUBLIC "-//W3C//DTD SVG 20010904//EN"
 "http://www.w3.org/TR/2001/REC-SVG-20010904/DTD/svg10.dtd">
<svg version="1.0" xmlns="http://www.w3.org/2000/svg"
 width="686.000000pt" height="668.000000pt" viewBox="0 0 686.000000 668.000000"
 preserveAspectRatio="xMidYMid meet">

<g transform="translate(0.000000,668.000000) scale(0.100000,-0.100000)"
fill="#000000" stroke="none">
<path d="M3327 6427 c-8 -20 1 -27 35 -27 23 0 29 4 26 18 -4 22 -53 29 -61 9z"/>
<path d="M3407 6433 c-7 -6 6 -16 80 -64 18 -12 30 -25 27 -30 -3 -5 2 -9 10
-9 9 0 16 5 16 10 0 15 32 12 54 -5 11 -8 30 -15 43 -15 13 0 35 -8 49 -17 26
-17 26 -17 22 13 -4 37 24 45 57 14 14 -13 33 -20 47 -18 19 2 24 10 26 42 l3
39 -63 -7 c-35 -4 -82 -14 -106 -23 -41 -15 -43 -15 -65 6 -15 13 -36 21 -59
21 -27 0 -40 6 -52 25 -12 18 -25 25 -50 25 -18 0 -36 -3 -39 -7z"/>
<path d="M3645 6430 c-10 -16 15 -40 41 -40 32 0 31 28 -2 40 -31 12 -31 12
-39 0z"/>
<path d="M3166 6421 c-7 -10 48 -50 69 -51 6 -1 -12 -12 -38 -26 -48 -25 -59
-51 -19 -47 11 1 26 -4 32 -12 7 -8 18 -15 26 -15 7 0 18 -9 24 -20 11 -20 50
-28 50 -11 0 14 -58 69 -78 74 -9 3 -1 5 19 6 46 1 85 31 76 56 -6 13 -14 16
-37 11 -22 -4 -30 -2 -30 8 0 8 -10 16 -22 19 -13 3 -33 8 -44 12 -12 4 -25 2
-28 -4z"/>
<path d="M3063 6413 c-24 -9 -13 -24 15 -21 15 2 26 8 25 13 -2 12 -23 16 -40
8z"/>
<path d="M3888 6388 c-30 -11 -37 -32 -13 -42 8 -3 36 1 61 9 51 15 72 11 54
-10 -6 -7 -9 -19 -8 -26 2 -9 -15 -16 -52 -22 -30 -5 -57 -11 -60 -14 -8 -8
25 -23 52 -23 39 0 58 -10 51 -27 -7 -17 14 -34 34 -26 18 7 16 30 -4 42 -17
10 -17 10 1 11 14 0 17 6 14 25 -4 16 0 29 10 34 10 6 13 14 7 27 -4 11 -7 24
-6 30 3 22 -92 30 -141 12z"/>
<path d="M2897 6373 c-14 -14 -6 -33 14 -33 25 0 59 17 59 30 0 11 -63 14 -73
3z"/>
<path d="M3057 6373 c-4 -3 -7 -19 -7 -34 0 -28 0 -28 -77 -31 -61 -2 -78 -6
-78 -18 0 -11 9 -14 34 -12 19 1 54 -5 77 -14 29 -11 60 -15 89 -11 56 6 66
14 40 33 -11 8 -20 18 -21 22 0 4 -4 15 -7 25 -4 9 -9 24 -12 32 -5 15 -27 20
-38 8z"/>
<path d="M2803 6363 c-7 -3 -13 -16 -13 -29 0 -14 -4 -33 -10 -43 -14 -28 21
-57 49 -41 22 11 29 54 11 65 -5 3 -10 15 -10 25 0 21 -9 29 -27 23z"/>
<path d="M4115 6360 c-7 -12 41 -40 70 -40 15 0 25 6 25 15 0 13 -10 17 -72
30 -10 2 -20 0 -23 -5z"/>
<path d="M3353 6343 c-19 -7 -16 -41 5 -52 26 -14 89 -24 102 -16 7 4 -1 19
-24 41 -33 32 -54 39 -83 27z"/>
<path d="M2615 6309 c-4 -6 -5 -11 -4 -13 2 -1 20 -12 41 -24 33 -21 37 -21
52 -7 20 20 20 20 0 39 -17 18 -79 22 -89 5z"/>
<path d="M4076 6311 c-8 -12 21 -34 34 -26 17 11 11 35 -9 35 -11 0 -22 -4
-25 -9z"/>
<path d="M3578 6299 c-22 -13 -23 -45 -2 -53 25 -9 56 12 52 37 -3 25 -25 32
-50 16z"/>
<path d="M4340 6273 c0 -47 -8 -59 -25 -36 -7 9 -17 13 -23 9 -16 -10 -3 -36
19 -36 10 0 19 -5 19 -10 0 -6 16 -18 35 -27 49 -23 53 -46 15 -84 -17 -17
-30 -39 -28 -48 5 -26 39 -25 62 2 18 22 32 26 101 31 63 5 85 3 100 -9 26
-19 55 -19 55 0 0 8 5 15 10 15 14 0 13 37 -1 46 -15 9 9 24 41 24 24 1 24 1
6 15 -11 8 -29 12 -41 9 -27 -7 -105 13 -105 26 0 6 -24 10 -54 10 -60 0 -79
13 -45 30 27 15 17 24 -53 44 -32 9 -64 19 -73 22 -12 5 -15 -2 -15 -33z m109
-69 c20 -40 30 -45 82 -38 34 4 49 2 58 -10 8 -9 19 -16 25 -16 6 0 18 -5 26
-10 24 -16 -6 -29 -45 -20 -18 4 -55 5 -83 2 -48 -4 -52 -3 -61 20 -5 13 -21
32 -35 41 -28 19 -33 36 -14 55 17 17 31 10 47 -24z"/>
<path d="M4240 6286 c0 -16 41 -29 53 -17 14 14 -2 31 -29 31 -14 0 -24 -6
-24 -14z"/>
<path d="M4135 6280 c-11 -18 24 -60 49 -60 27 0 43 -29 24 -42 -7 -4 -9 -8
-5 -8 4 0 19 7 33 16 l24 17 -46 43 c-46 44 -67 53 -79 34z"/>
<path d="M2418 6253 c-32 -12 -36 -18 -28 -33 8 -14 19 -17 60 -15 78 6 92 23
38 49 -17 9 -32 16 -32 15 -1 0 -18 -7 -38 -16z"/>
<path d="M4067 6263 c-13 -12 -7 -31 10 -37 23 -9 50 24 30 36 -15 10 -31 10
-40 1z"/>
<path d="M2861 6248 c-31 -9 -33 -11 -18 -26 21 -21 90 -6 95 21 4 20 -21 21
-77 5z"/>
<path d="M3413 6239 c-18 -12 -33 -27 -33 -34 0 -7 -7 -15 -15 -19 -8 -3 -15
-12 -15 -21 0 -8 -7 -15 -16 -15 -9 0 -14 -7 -12 -17 2 -12 12 -18 28 -18 22
0 25 5 28 38 3 31 7 37 26 37 31 0 77 37 69 55 -7 20 -22 19 -60 -6z"/>
<path d="M3700 6249 c-13 -8 -11 -12 9 -29 28 -24 91 -28 91 -5 0 26 -74 51
-100 34z"/>
<path d="M2567 6244 c-4 -4 -2 -13 4 -20 7 -9 1 -15 -26 -24 -64 -21 -27 -63
41 -46 24 6 36 46 13 46 -5 0 -9 10 -7 22 3 21 -12 35 -25 22z"/>
<path d="M2674 6233 c-17 -17 -17 -18 2 -21 42 -7 47 -11 34 -28 -21 -24 3
-41 35 -24 20 11 30 11 51 1 20 -9 30 -9 40 0 20 16 8 29 -29 29 -30 1 -97 29
-69 30 6 0 12 7 12 15 0 21 -54 19 -76 -2z"/>
<path d="M3182 6223 c2 -10 10 -18 18 -18 8 0 16 8 18 18 2 12 -3 17 -18 17
-15 0 -20 -5 -18 -17z"/>
<path d="M3534 6223 c-3 -10 -10 -26 -15 -36 -11 -20 -4 -37 16 -37 16 0 53
60 47 78 -6 18 -42 14 -48 -5z"/>
<path d="M3873 6205 c-7 -19 24 -55 47 -55 30 0 31 28 3 50 -31 24 -42 25 -50
5z"/>
<path d="M2994 6196 c-27 -19 -37 -55 -18 -63 8 -3 26 3 42 13 15 10 35 23 46
29 10 5 19 15 20 20 2 16 -67 17 -90 1z"/>
<path d="M4058 6199 c-27 -15 -22 -36 12 -48 55 -19 82 12 38 43 -26 19 -27
19 -50 5z"/>
<path d="M2355 6174 c-15 -12 -36 -15 -85 -11 -59 5 -70 2 -125 -27 -33 -18
-78 -49 -99 -70 -30 -29 -44 -36 -63 -31 -22 5 -36 1 -72 -24 -12 -8 -12 -12
-2 -24 10 -12 10 -20 -1 -36 -16 -25 -6 -36 20 -22 12 6 39 11 61 11 53 0 54
-21 4 -71 -83 -82 -88 -88 -75 -101 9 -9 27 3 79 53 38 35 75 77 83 94 10 20
25 31 45 35 20 4 38 18 58 48 16 24 40 48 54 53 13 5 42 23 63 41 27 21 52 32
77 32 31 2 38 6 44 28 4 15 4 29 1 32 -10 11 -47 5 -67 -10z m-193 -143 c-44
-45 -85 -81 -92 -81 -17 0 -67 55 -62 69 2 7 16 9 37 5 29 -5 36 -2 65 35 19
23 38 41 44 41 7 0 27 11 46 24 32 22 35 22 38 6 2 -12 -25 -47 -76 -99z"/>
<path d="M3110 6165 c0 -16 43 -31 60 -20 8 5 8 11 -1 21 -15 19 -59 18 -59
-1z"/>
<path d="M3699 6144 c-24 -29 30 -46 66 -21 10 8 15 19 11 25 -10 17 -61 15
-77 -4z"/>
<path d="M2873 6143 c-34 -13 2 -53 46 -53 28 0 27 25 -1 44 -24 17 -26 17
-45 9z"/>
<path d="M3855 6137 c-24 -18 -11 -37 25 -37 34 0 47 15 30 35 -15 19 -31 19
-55 2z"/>
<path d="M2620 6114 c-11 -29 -7 -54 9 -54 18 0 42 33 39 54 -5 32 -36 32 -48
0z"/>
<path d="M4233 6132 c-46 -3 -53 -6 -53 -23 0 -19 4 -20 58 -14 31 4 61 11 65
15 16 14 -19 25 -70 22z"/>
<path d="M2417 6113 c-4 -3 -7 -15 -7 -25 0 -10 -11 -24 -25 -30 -32 -15 -32
-38 0 -38 15 0 31 9 41 25 9 14 22 25 29 25 18 0 28 32 13 42 -16 9 -42 10
-51 1z"/>
<path d="M3185 6109 c-8 -12 14 -31 30 -26 6 2 10 10 10 18 0 17 -31 24 -40 8z"/>
<path d="M4820 6099 c0 -14 12 -25 40 -37 39 -17 52 -36 28 -44 -19 -7 -1 -38
22 -38 21 0 28 24 9 35 -6 5 -5 11 5 18 9 7 12 17 8 22 -10 14 -56 43 -87 55
-22 8 -25 7 -25 -11z"/>
<path d="M2745 6089 c-10 -15 1 -23 20 -15 9 3 13 10 10 16 -8 13 -22 13 -30
-1z"/>
<path d="M4076 6093 c-12 -12 -5 -23 14 -23 11 0 20 4 20 9 0 11 -26 22 -34
14z"/>
<path d="M3059 6083 c-1 -5 -1 -15 0 -25 1 -9 -3 -19 -9 -23 -18 -11 -11 -25
13 -25 16 0 26 9 34 31 7 18 10 36 7 40 -6 11 -44 12 -45 2z"/>
<path d="M3420 6074 c0 -10 7 -14 22 -12 32 5 35 28 4 28 -17 0 -26 -5 -26
-16z"/>
<path d="M3977 6078 c-9 -5 -17 -14 -17 -19 0 -14 52 -7 57 7 5 16 -20 24 -40
12z"/>
<path d="M3541 6071 c-18 -12 -5 -31 20 -31 14 0 19 6 17 17 -4 20 -18 26 -37
14z"/>
<path d="M3774 6066 c-18 -14 -18 -15 -1 -22 22 -8 46 11 31 26 -7 7 -17 5
-30 -4z"/>
<path d="M4697 6073 c-16 -15 -6 -33 18 -33 28 0 34 24 9 34 -19 7 -19 7 -27
-1z"/>
<path d="M3217 6063 c-3 -5 -2 -15 3 -23 10 -16 40 -5 43 15 2 12 -39 19 -46
8z"/>
<path d="M2460 6038 c0 -17 5 -20 33 -15 43 6 70 -8 62 -34 -5 -15 -2 -19 15
-19 23 0 41 31 22 38 -7 2 -10 13 -6 26 5 22 2 23 -60 24 -60 0 -66 -1 -66
-20z"/>
<path d="M4114 6046 c-8 -21 3 -36 27 -36 25 0 25 26 -1 40 -16 9 -22 8 -26
-4z"/>
<path d="M3853 6034 c-6 -16 12 -34 35 -34 18 0 15 37 -4 44 -22 8 -24 8 -31
-10z"/>
<path d="M3430 6030 c-13 -8 -12 -12 5 -24 22 -17 37 -16 42 1 6 17 -30 33
-47 23z"/>
<path d="M4539 6021 c-13 -10 -41 -21 -61 -25 -24 -4 -38 -12 -38 -22 0 -20
29 -29 51 -16 29 19 67 15 74 -8 3 -10 20 -31 37 -45 23 -20 33 -23 44 -14 18
15 -1 43 -46 71 -26 15 -30 21 -20 33 13 15 7 45 -8 45 -5 0 -20 -8 -33 -19z"/>
<path d="M4792 6028 c7 -19 38 -22 38 -4 0 10 -9 16 -21 16 -12 0 -19 -5 -17
-12z"/>
<path d="M4974 6029 c-7 -13 23 -42 39 -36 16 5 12 20 -10 34 -16 11 -23 11
-29 2z"/>
<path d="M2778 6004 c-11 -23 -16 -25 -48 -20 -19 3 -41 2 -49 -3 -26 -16 -5
-33 47 -36 52 -4 52 -4 72 34 18 36 18 51 -2 51 -5 0 -14 -12 -20 -26z"/>
<path d="M3297 6023 c-14 -13 -6 -24 15 -21 27 4 36 28 11 28 -11 0 -23 -3
-26 -7z"/>
<path d="M4260 5996 c0 -18 23 -27 41 -15 12 8 12 10 -1 19 -22 14 -40 12 -40
-4z"/>
<path d="M2220 5985 c-11 -13 -9 -20 10 -40 28 -30 40 -24 40 21 0 27 -4 34
-19 34 -10 0 -24 -7 -31 -15z"/>
<path d="M4107 5986 c-7 -17 11 -36 35 -36 23 0 24 35 2 44 -24 9 -31 7 -37
-8z"/>
<path d="M4340 5985 c0 -8 7 -18 15 -21 12 -5 13 -9 4 -21 -16 -18 3 -38 26
-29 14 5 15 9 6 20 -9 11 -9 15 1 19 10 3 10 9 2 23 -14 25 -54 31 -54 9z"/>
<path d="M4210 5975 c0 -18 24 -30 39 -21 16 10 1 36 -20 36 -10 0 -19 -7 -19
-15z"/>
<path d="M4723 5972 c-18 -9 -33 -20 -33 -24 0 -9 33 -18 75 -21 27 -2 30 1
30 28 0 37 -24 42 -72 17z"/>
<path d="M2321 5969 c-19 -8 -21 -12 -11 -24 17 -20 69 -19 77 1 6 16 -12 34
-32 33 -5 0 -21 -5 -34 -10z"/>
<path d="M2895 5966 c-19 -14 -19 -15 -1 -22 20 -8 52 7 49 22 -3 15 -27 15
-48 0z"/>
<path d="M4893 5963 c-19 -7 -16 -37 5 -56 26 -24 41 -21 48 8 3 14 12 25 20
25 8 0 14 5 14 10 0 6 -11 10 -24 10 -13 0 -30 2 -38 4 -7 3 -19 2 -25 -1z"/>
<path d="M1821 5946 c-8 -10 -9 -16 -1 -21 16 -10 50 4 50 21 0 18 -34 18 -49
0z"/>
<path d="M4014 5945 c-8 -20 13 -45 37 -45 29 0 34 22 9 42 -27 22 -39 23 -46
3z"/>
<path d="M5036 5944 c-8 -21 19 -64 40 -64 23 0 28 27 10 55 -19 29 -41 32
-50 9z"/>
<path d="M3231 5936 c-10 -11 -8 -16 9 -21 22 -7 53 11 44 26 -8 14 -40 11
-53 -5z"/>
<path d="M3532 5938 c5 -15 28 -18 29 -3 0 6 -7 12 -17 13 -10 3 -15 -1 -12
-10z"/>
<path d="M2469 5920 l-24 -19 28 -1 c32 0 67 16 67 30 0 17 -47 11 -71 -10z"/>
<path d="M3057 5933 c-14 -13 -6 -23 18 -23 16 0 25 6 25 15 0 15 -31 21 -43
8z"/>
<path d="M3752 5924 c2 -11 11 -20 22 -22 13 -3 17 1 14 14 -2 11 -11 20 -22
22 -13 3 -17 -1 -14 -14z"/>
<path d="M3852 5928 c5 -15 37 -18 41 -3 1 6 -9 12 -22 13 -16 3 -22 -1 -19
-10z"/>
<path d="M5132 5929 c2 -7 10 -15 17 -17 8 -3 12 1 9 9 -2 7 -10 15 -17 17 -8
3 -12 -1 -9 -9z"/>
<path d="M2213 5895 c-3 -9 -2 -19 1 -23 8 -8 38 10 44 26 6 18 -38 14 -45 -3z"/>
<path d="M1838 5889 c-32 -4 -67 -13 -78 -19 -12 -6 -29 -9 -39 -5 -22 7 -46
-19 -37 -40 5 -13 9 -14 28 -3 13 7 48 15 78 19 103 14 135 24 138 42 4 19 -1
19 -90 6z"/>
<path d="M2088 5879 c-21 -12 -24 -39 -5 -39 18 0 49 34 40 43 -8 9 -15 8 -35
-4z"/>
<path d="M3061 5876 c-7 -9 -8 -17 -2 -20 14 -9 41 4 41 20 0 18 -24 18 -39 0z"/>
<path d="M3500 5875 c0 -11 7 -15 23 -13 12 2 22 8 22 13 0 6 -10 11 -22 13
-16 2 -23 -2 -23 -13z"/>
<path d="M5020 5867 c0 -20 22 -37 47 -37 29 0 29 14 1 34 -27 19 -48 21 -48
3z"/>
<path d="M5216 5866 c6 -16 34 -29 43 -20 6 6 -27 34 -41 34 -4 0 -5 -6 -2
-14z"/>
<path d="M2427 5853 c-15 -14 -6 -33 16 -33 29 0 37 7 30 26 -5 14 -35 19 -46
7z"/>
<path d="M3097 5854 c-10 -11 3 -24 24 -24 10 0 19 7 19 15 0 15 -31 21 -43 9z"/>
<path d="M5164 5850 c-26 -10 -37 -45 -18 -61 17 -14 44 -5 44 15 0 8 7 19 16
24 9 5 14 14 10 21 -8 13 -22 13 -52 1z"/>
<path d="M1877 5843 c-13 -12 -7 -23 13 -23 11 0 20 7 20 15 0 15 -21 21 -33
8z"/>
<path d="M2774 5839 c-9 -15 12 -33 30 -26 9 4 16 13 16 22 0 17 -35 21 -46 4z"/>
<path d="M3865 5840 c3 -5 13 -10 21 -10 8 0 12 5 9 10 -3 6 -13 10 -21 10 -8
0 -12 -4 -9 -10z"/>
<path d="M4472 5838 c5 -15 28 -18 29 -3 0 6 -7 12 -17 13 -10 3 -15 -1 -12
-10z"/>
<path d="M4797 5843 c-13 -12 -7 -23 13 -23 11 0 20 7 20 15 0 15 -21 21 -33
8z"/>
<path d="M4894 5840 c-30 -12 -38 -28 -24 -45 18 -22 43 -18 69 9 36 38 10 58
-45 36z"/>
<path d="M2106 5824 c-9 -8 -16 -21 -16 -27 0 -7 -10 -18 -21 -25 -16 -10 -18
-17 -10 -25 8 -8 19 -4 40 18 16 17 36 36 45 43 9 7 16 17 16 22 0 16 -37 12
-54 -6z"/>
<path d="M3910 5816 c0 -14 37 -29 52 -20 20 13 7 34 -22 34 -19 0 -30 -5 -30
-14z"/>
<path d="M4307 5824 c-11 -12 3 -24 29 -24 16 0 24 5 22 13 -5 13 -40 22 -51
11z"/>
<path d="M4659 5811 c-22 -18 -22 -20 -6 -26 11 -5 25 -1 37 10 40 36 10 50
-31 16z"/>
<path d="M1622 5808 c-16 -16 -15 -38 1 -38 17 0 37 20 37 37 0 16 -22 17 -38
1z"/>
<path d="M1732 5797 c-7 -8 -7 -18 -2 -27 11 -18 43 -2 48 24 4 20 -30 22 -46
3z"/>
<path d="M4082 5793 c4 -22 43 -25 43 -3 0 8 -11 16 -23 18 -19 3 -23 0 -20
-15z"/>
<path d="M5265 5800 c-11 -18 25 -50 57 -50 30 0 38 19 15 38 -20 17 -64 25
-72 12z"/>
<path d="M2178 5789 c-25 -14 -22 -31 4 -27 13 2 24 11 26 21 4 19 -5 21 -30
6z"/>
<path d="M3190 5786 c0 -15 29 -36 50 -36 6 0 10 10 8 23 -4 27 -58 39 -58 13z"/>
<path d="M4760 5785 c0 -18 34 -37 54 -29 19 7 20 16 4 32 -17 17 -58 15 -58
-3z"/>
<path d="M5010 5789 c0 -16 56 -69 74 -69 19 0 11 26 -17 58 -21 23 -57 30
-57 11z"/>
<path d="M2631 5781 c-19 -12 -6 -43 16 -39 10 2 18 12 18 22 0 22 -14 29 -34
17z"/>
<path d="M4565 5780 c-4 -7 -3 -16 3 -22 14 -14 45 -2 40 15 -6 16 -34 21 -43
7z"/>
<path d="M1530 5747 l-34 -32 29 -6 c56 -12 68 -11 59 9 -4 9 -7 27 -7 40 1
29 -6 28 -47 -11z"/>
<path d="M1772 5754 c-27 -19 -28 -30 -1 -44 15 -9 28 -9 49 0 26 11 45 42 32
54 -11 12 -58 6 -80 -10z"/>
<path d="M1636 5744 c-9 -8 -16 -21 -16 -29 0 -7 -11 -20 -25 -29 -14 -9 -25
-23 -25 -31 0 -23 31 -18 60 10 23 22 31 24 55 15 20 -8 31 -7 41 1 19 15 18
39 -1 39 -8 0 -23 9 -32 20 -21 24 -36 25 -57 4z"/>
<path d="M4455 5750 c3 -5 10 -10 16 -10 5 0 9 5 9 10 0 6 -7 10 -16 10 -8 0
-12 -4 -9 -10z"/>
<path d="M5227 5753 c-13 -12 -7 -24 18 -33 18 -7 25 -17 25 -35 0 -24 39 -75
58 -75 4 0 16 -16 25 -35 16 -33 39 -45 51 -26 7 10 79 -24 97 -45 14 -17 45
-18 55 -2 9 14 -31 48 -56 48 -9 0 -29 10 -44 21 -20 16 -30 19 -39 10 -16
-16 -25 -14 -37 8 -16 31 4 71 35 71 32 0 43 26 21 48 -12 13 -18 14 -28 4 -7
-7 -22 -12 -35 -12 -16 0 -23 -6 -23 -20 0 -28 -25 -25 -38 5 -6 14 -17 25
-23 25 -6 0 -9 6 -6 14 10 25 -36 49 -56 29z"/>
<path d="M4370 5740 c-18 -11 -4 -42 17 -38 10 2 19 10 21 19 4 19 -19 31 -38
19z"/>
<path d="M5127 5744 c-18 -19 40 -64 83 -64 27 0 25 16 -5 45 -22 23 -64 33
-78 19z"/>
<path d="M4957 5733 c-11 -10 13 -33 34 -33 22 0 24 11 7 28 -13 13 -31 16
-41 5z"/>
<path d="M2053 5723 c-17 -6 -16 -33 1 -33 17 0 38 24 29 33 -7 8 -12 8 -30 0z"/>
<path d="M2377 5718 c-14 -37 40 -91 63 -63 9 11 7 20 -11 44 -24 33 -44 39
-52 19z"/>
<path d="M3897 5724 c-11 -11 3 -24 24 -24 12 0 19 5 17 13 -5 14 -31 21 -41
11z"/>
<path d="M2776 5697 c-16 -12 -16 -14 -2 -26 12 -10 13 -17 6 -26 -8 -10 -8
-15 0 -20 17 -10 28 5 32 44 3 38 -9 48 -36 28z"/>
<path d="M1873 5693 c-20 -8 -15 -23 7 -23 11 0 20 7 20 15 0 15 -6 17 -27 8z"/>
<path d="M1914 5689 c-9 -15 12 -33 30 -26 9 4 16 13 16 22 0 17 -35 21 -46 4z"/>
<path d="M2222 5678 c2 -15 11 -24 26 -26 18 -3 22 1 22 22 0 21 -5 26 -26 26
-21 0 -25 -4 -22 -22z"/>
<path d="M4435 5691 c-8 -15 3 -31 21 -31 9 0 14 7 12 17 -4 20 -24 28 -33 14z"/>
<path d="M1453 5678 c-19 -25 -22 -46 -8 -64 12 -18 15 -18 49 -1 40 18 47 42
16 52 -11 3 -20 11 -20 16 0 13 -26 11 -37 -3z"/>
<path d="M4830 5672 c0 -36 40 -60 98 -59 62 1 66 21 4 25 -30 2 -47 10 -61
28 -22 28 -41 31 -41 6z"/>
<path d="M2305 5670 c-4 -7 -3 -16 3 -22 14 -14 57 -6 57 12 0 18 -50 26 -60
10z"/>
<path d="M5470 5672 c0 -5 12 -19 27 -32 24 -21 25 -24 10 -35 -22 -16 -21
-32 2 -45 15 -7 23 -6 35 6 24 23 20 36 -22 77 -37 37 -52 45 -52 29z"/>
<path d="M1977 5663 c-16 -15 -6 -34 15 -31 29 4 38 38 10 38 -10 0 -22 -3
-25 -7z"/>
<path d="M1658 5639 c-24 -14 -23 -39 2 -39 29 0 70 21 70 37 0 15 -47 17 -72
2z"/>
<path d="M5080 5636 c0 -16 27 -29 41 -20 13 8 -9 34 -27 34 -8 0 -14 -6 -14
-14z"/>
<path d="M2848 5609 c-27 -15 -21 -29 13 -29 23 0 30 4 27 17 -4 21 -18 25
-40 12z"/>
<path d="M1803 5595 c-3 -9 -2 -19 1 -23 8 -8 38 10 44 26 6 18 -38 14 -45 -3z"/>
<path d="M4042 5598 c3 -7 15 -15 27 -16 16 -3 22 1 19 10 -3 7 -15 15 -27 16
-16 3 -22 -1 -19 -10z"/>
<path d="M5150 5596 c0 -15 52 -43 99 -52 38 -8 39 4 3 39 -31 30 -102 39
-102 13z"/>
<path d="M1363 5584 c-37 -16 -45 -26 -37 -48 4 -12 13 -15 28 -10 27 8 66 44
66 61 0 16 -16 15 -57 -3z"/>
<path d="M1528 5572 c-7 -10 -28 -28 -45 -41 -63 -44 -27 -71 41 -30 37 22 50
46 40 73 -8 21 -20 20 -36 -2z"/>
<path d="M4646 5582 c-9 -14 21 -35 40 -28 8 3 14 12 12 19 -6 15 -44 22 -52
9z"/>
<path d="M1939 5559 c-15 -15 -18 -24 -10 -32 16 -16 61 8 61 33 0 26 -24 26
-51 -1z"/>
<path d="M1695 5561 c-3 -5 -1 -12 5 -16 12 -7 30 2 30 16 0 12 -27 12 -35 0z"/>
<path d="M5610 5547 c0 -2 15 -24 34 -48 26 -32 33 -50 30 -69 -4 -17 4 -43
20 -74 14 -27 26 -55 26 -61 0 -17 31 -28 44 -15 6 6 3 17 -12 33 -12 13 -22
32 -22 43 0 40 -31 119 -58 147 -25 27 -62 53 -62 44z"/>
<path d="M4790 5516 c0 -18 30 -30 43 -17 5 5 6 14 3 20 -10 16 -46 13 -46 -3z"/>
<path d="M1319 5480 c-40 -42 -74 -60 -112 -60 -29 0 -53 -35 -31 -44 43 -16
74 -5 125 44 28 28 59 50 68 50 20 0 41 19 41 37 0 29 -53 13 -91 -27z"/>
<path d="M1563 5513 c-17 -6 -17 -43 0 -43 17 0 37 20 37 37 0 13 -15 16 -37
6z"/>
<path d="M2076 5504 c-9 -25 10 -41 32 -28 24 15 21 38 -4 42 -13 2 -24 -4
-28 -14z"/>
<path d="M4255 5500 c-8 -13 3 -30 20 -30 20 0 30 21 14 31 -18 11 -26 11 -34
-1z"/>
<path d="M5352 5488 c2 -12 10 -23 18 -23 22 0 19 39 -3 43 -15 3 -18 -1 -15
-20z"/>
<path d="M5432 5498 c6 -16 36 -34 44 -26 3 4 4 14 1 23 -7 17 -51 21 -45 3z"/>
<path d="M5610 5495 c0 -16 27 -32 37 -21 7 7 -16 36 -28 36 -5 0 -9 -7 -9
-15z"/>
<path d="M5272 5488 c3 -7 15 -15 27 -16 16 -3 22 1 19 10 -3 7 -15 15 -27 16
-16 3 -22 -1 -19 -10z"/>
<path d="M5175 5480 c-3 -5 -17 -10 -31 -10 -29 0 -31 -13 -4 -40 11 -11 25
-20 30 -20 6 0 10 9 10 20 0 11 5 20 10 20 6 0 10 9 10 20 0 21 -15 27 -25 10z"/>
<path d="M1660 5445 c-10 -13 -11 -18 -1 -28 10 -9 15 -8 26 7 23 31 -1 50
-25 21z"/>
<path d="M5537 5453 c-13 -13 -7 -33 18 -55 15 -13 25 -32 25 -49 0 -30 27
-48 36 -24 8 21 -4 85 -22 113 -14 21 -43 29 -57 15z"/>
<path d="M5434 5439 c-3 -6 1 -18 9 -27 13 -12 19 -13 31 -3 8 7 12 19 9 27
-6 17 -39 19 -49 3z"/>
<path d="M4670 5421 c-13 -24 -13 -61 -1 -61 5 0 13 9 16 20 3 11 13 20 21 20
8 0 14 9 14 20 0 26 -36 27 -50 1z"/>
<path d="M1824 5419 c-11 -18 13 -34 31 -19 8 7 15 16 15 21 0 13 -38 11 -46
-2z"/>
<path d="M2410 5421 c0 -19 22 -23 38 -7 15 15 14 16 -11 16 -15 0 -27 -4 -27
-9z"/>
<path d="M5275 5410 c-9 -15 4 -30 26 -30 17 0 18 3 9 20 -12 22 -25 26 -35
10z"/>
<path d="M1418 5404 c-4 -3 -23 -6 -43 -6 -38 0 -81 -30 -70 -48 14 -22 113 3
131 32 7 11 -9 31 -18 22z"/>
<path d="M1953 5394 c-3 -8 -1 -20 6 -27 14 -14 47 15 37 32 -10 16 -36 13
-43 -5z"/>
<path d="M1483 5375 c-3 -9 -2 -19 1 -23 8 -8 38 10 44 26 6 18 -38 14 -45 -3z"/>
<path d="M1660 5370 c0 -21 8 -24 34 -14 25 10 19 34 -9 34 -18 0 -25 -5 -25
-20z"/>
<path d="M5060 5376 c0 -15 37 -32 47 -22 3 3 3 12 0 21 -8 19 -47 20 -47 1z"/>
<path d="M1550 5365 c-13 -16 -7 -45 9 -45 13 0 41 41 35 52 -8 13 -30 9 -44
-7z"/>
<path d="M1890 5366 c0 -8 4 -17 9 -20 11 -7 33 18 24 27 -12 12 -33 7 -33 -7z"/>
<path d="M5008 5354 c-12 -11 4 -34 24 -34 13 0 18 6 16 17 -3 18 -29 29 -40
17z"/>
<path d="M5800 5323 c11 -21 20 -46 20 -55 0 -11 10 -20 28 -24 15 -4 35 -16
44 -28 15 -18 18 -19 18 -4 0 10 -13 27 -30 40 -16 12 -33 31 -36 42 -7 24
-43 66 -56 66 -4 0 1 -17 12 -37z"/>
<path d="M5416 5330 c-14 -15 -17 -23 -9 -31 17 -17 68 3 68 27 0 26 -35 28
-59 4z"/>
<path d="M5523 5324 c-7 -19 13 -34 45 -34 28 0 28 14 0 34 -28 20 -37 20 -45
0z"/>
<path d="M5665 5320 c3 -5 8 -10 11 -10 2 0 4 5 4 10 0 6 -5 10 -11 10 -5 0
-7 -4 -4 -10z"/>
<path d="M4672 5308 c7 -20 48 -23 48 -4 0 11 -9 16 -26 16 -16 0 -24 -5 -22
-12z"/>
<path d="M1085 5291 c-8 -26 4 -51 26 -51 20 0 36 40 24 59 -10 18 -43 12 -50
-8z"/>
<path d="M1183 5293 c-15 -5 -18 -43 -4 -43 23 0 41 14 41 31 0 19 -12 23 -37
12z"/>
<path d="M5025 5290 c-4 -6 -3 -16 3 -22 6 -6 12 -6 17 2 4 6 3 16 -3 22 -6 6
-12 6 -17 -2z"/>
<path d="M1338 5279 c-19 -11 -25 -49 -8 -49 16 0 51 40 45 50 -8 12 -15 12
-37 -1z"/>
<path d="M1231 5251 c-24 -43 -4 -88 25 -59 22 21 23 71 2 76 -9 2 -21 -6 -27
-17z"/>
<path d="M5182 5254 c2 -11 11 -20 22 -22 13 -3 17 1 14 14 -2 11 -11 20 -22
22 -13 3 -17 -1 -14 -14z"/>
<path d="M5652 5238 c3 -25 43 -37 61 -19 15 15 -10 41 -40 41 -20 0 -24 -4
-21 -22z"/>
<path d="M1380 5235 c-7 -8 -9 -23 -5 -32 6 -16 8 -16 26 6 18 22 18 41 0 41
-5 0 -14 -7 -21 -15z"/>
<path d="M1560 5235 c-10 -12 -10 -19 -1 -28 14 -14 46 2 46 24 0 20 -30 23
-45 4z"/>
<path d="M5520 5232 c0 -12 44 -52 58 -52 18 0 14 25 -6 43 -19 18 -52 23 -52
9z"/>
<path d="M5595 5220 c3 -5 10 -10 16 -10 5 0 9 5 9 10 0 6 -7 10 -16 10 -8 0
-12 -4 -9 -10z"/>
<path d="M5792 5218 c5 -15 48 -18 48 -3 0 6 -11 11 -26 13 -18 3 -25 0 -22
-10z"/>
<path d="M5422 5203 c2 -10 10 -18 18 -18 22 0 18 29 -3 33 -14 3 -18 -1 -15
-15z"/>
<path d="M5766 5212 c-3 -6 -1 -14 5 -17 15 -10 25 3 12 16 -7 7 -13 7 -17 1z"/>
<path d="M995 5180 c-9 -16 -12 -30 -7 -30 12 0 42 34 42 48 0 22 -19 12 -35
-18z"/>
<path d="M1063 5200 c-25 -10 -40 -47 -24 -63 12 -12 36 4 52 36 14 24 0 37
-28 27z"/>
<path d="M1416 5194 c-26 -25 -20 -46 12 -42 21 2 28 9 30 31 4 31 -17 37 -42
11z"/>
<path d="M5034 5186 c-8 -20 13 -56 32 -56 20 0 28 24 14 49 -12 24 -38 28
-46 7z"/>
<path d="M5374 5175 c-7 -18 3 -35 21 -35 21 0 28 19 15 35 -16 19 -29 19 -36
0z"/>
<path d="M1851 5166 c-8 -10 -9 -16 -1 -21 13 -8 30 3 30 21 0 18 -14 18 -29
0z"/>
<path d="M1606 5141 c-21 -23 -14 -41 15 -41 10 0 19 -6 19 -14 0 -24 21 -30
38 -12 16 16 16 18 -4 34 -12 9 -24 25 -27 35 -8 22 -20 22 -41 -2z"/>
<path d="M5775 5150 c-11 -18 25 -50 56 -50 57 0 43 44 -17 56 -20 4 -34 2
-39 -6z"/>
<path d="M5900 5141 c-15 -29 -12 -62 8 -85 10 -12 26 -48 36 -81 31 -106 34
-110 96 -112 43 -1 57 -6 71 -24 18 -24 33 -12 22 18 -22 61 -71 91 -100 62
-22 -22 -43 -2 -43 39 0 23 -8 49 -19 63 -11 15 -18 40 -18 66 0 62 -31 94
-53 54z"/>
<path d="M1208 5129 c-22 -12 -23 -32 -3 -49 14 -12 13 -16 -10 -40 -27 -29
-31 -40 -13 -40 14 0 88 77 88 91 0 19 -21 49 -33 49 -7 0 -20 -5 -29 -11z"/>
<path d="M5732 5109 c3 -24 33 -48 44 -36 4 4 2 18 -4 32 -14 31 -45 34 -40 4z"/>
<path d="M1413 5105 c-3 -9 -2 -19 1 -23 8 -8 38 10 44 26 6 18 -38 14 -45 -3z"/>
<path d="M1018 5099 c-25 -14 -24 -59 1 -59 22 0 64 47 55 61 -7 12 -35 11
-56 -2z"/>
<path d="M5532 5098 c7 -20 48 -23 48 -4 0 11 -9 16 -26 16 -16 0 -24 -5 -22
-12z"/>
<path d="M5641 5067 c-5 -13 -19 -27 -31 -30 -28 -7 -21 -31 9 -35 16 -3 24 2
28 16 3 11 14 22 25 25 24 7 21 40 -5 45 -11 2 -20 -5 -26 -21z"/>
<path d="M1113 5073 c-7 -2 -13 -13 -13 -24 0 -25 36 -25 49 0 15 27 -2 38
-36 24z"/>
<path d="M1368 5069 c-21 -12 -24 -39 -4 -39 7 0 19 7 26 15 17 21 1 37 -22
24z"/>
<path d="M5996 5066 c3 -9 11 -16 16 -16 13 0 5 23 -10 28 -7 2 -10 -2 -6 -12z"/>
<path d="M917 5063 c-14 -13 -6 -33 13 -33 13 0 20 7 20 20 0 19 -20 27 -33
13z"/>
<path d="M3251 5033 c-21 -21 -44 -48 -52 -60 -15 -21 -17 -22 -64 -8 -105 32
-152 10 -183 -85 l-19 -55 -72 -6 c-99 -8 -122 -30 -129 -128 l-5 -70 -48 -16
c-118 -39 -128 -76 -69 -250 23 -70 39 -133 36 -141 -8 -20 -70 -103 -78 -104
-15 -1 -68 86 -68 112 0 30 25 88 38 88 12 1 68 50 56 50 -6 0 -32 -18 -58
-41 -41 -37 -46 -45 -46 -84 0 -32 8 -55 34 -93 l35 -50 -35 -48 c-26 -38 -34
-59 -34 -92 0 -46 18 -71 85 -119 l29 -21 -17 -54 c-21 -67 -21 -81 -2 -117
14 -27 94 -71 129 -71 13 0 16 -12 16 -55 0 -113 42 -155 155 -155 43 0 55 -3
55 -16 0 -35 44 -115 71 -129 36 -19 50 -19 117 2 l54 17 21 -29 c48 -67 73
-85 119 -85 33 0 54 8 92 34 l48 35 50 -35 c52 -35 101 -44 138 -24 23 12 84
89 77 96 -3 3 -17 -12 -32 -34 -46 -69 -106 -80 -173 -31 -23 17 -42 34 -42
37 1 10 102 82 115 82 5 0 63 -18 129 -40 65 -22 128 -40 140 -40 44 0 84 36
106 98 l22 59 70 5 c97 7 120 30 127 129 l6 72 55 19 c96 31 121 87 85 188
-15 41 -14 44 6 58 105 74 119 115 65 201 -20 33 -36 62 -36 65 0 4 16 29 35
57 52 76 48 101 -25 170 l-60 56 15 43 c19 53 19 93 1 129 -15 29 -40 43 -105
61 l-41 11 0 59 c0 106 -33 140 -139 140 l-60 0 -11 41 c-18 65 -32 90 -61
105 -36 18 -76 18 -129 -1 l-43 -15 -56 60 c-69 73 -94 77 -171 25 -29 -19
-55 -35 -59 -35 -3 0 -31 16 -61 35 -71 46 -102 45 -149 -2z m147 -8 c28 -20
52 -37 52 -39 0 -2 -26 -22 -59 -44 l-59 -42 -63 22 c-35 11 -66 22 -68 24 -7
6 60 89 82 101 35 20 59 15 115 -22z m284 -17 c21 -24 38 -48 38 -55 0 -7 -30
-21 -66 -32 l-66 -20 -54 41 c-30 22 -54 43 -54 47 0 3 21 21 48 39 64 44 103
39 154 -20z m-122 -103 c7 -9 -7 -17 -48 -29 -54 -16 -59 -16 -111 2 l-54 18
57 42 58 41 45 -31 c24 -18 48 -37 53 -43z m-439 54 c19 -7 38 -15 43 -19 4
-5 -11 -33 -34 -64 l-42 -56 -69 0 c-79 0 -82 5 -50 76 32 69 77 88 152 63z
m796 -7 c17 -13 63 -107 63 -129 0 -2 -33 -3 -74 -3 l-73 0 -42 60 -42 60 23
9 c65 25 116 26 145 3z m-660 -39 c29 -9 53 -20 53 -24 0 -5 -20 -22 -44 -39
-37 -25 -55 -30 -100 -30 -31 0 -56 2 -56 5 0 11 75 105 84 105 5 0 33 -8 63
-17z m525 -40 l39 -53 -58 0 c-49 0 -65 5 -105 33 -27 17 -48 35 -48 38 0 9
92 38 114 36 11 -1 37 -26 58 -54z m-137 -27 l30 -25 -46 -1 c-40 0 -69 6
-129 27 -9 3 5 12 35 23 53 18 61 17 110 -24z m-235 20 l35 -13 -57 -17 c-32
-10 -76 -16 -99 -14 l-42 3 39 28 c42 29 70 32 124 13z m105 -36 c14 -6 -2 -9
-50 -9 -48 0 -64 3 -50 9 11 5 34 9 50 9 17 0 39 -4 50 -9z m-609 -87 l-23
-68 -59 -22 c-81 -30 -84 -29 -84 15 0 104 35 141 132 142 l57 0 -23 -67z
m141 20 c-27 -37 -47 -53 -86 -67 -29 -10 -54 -17 -56 -14 -3 2 5 32 16 66
l21 62 70 0 70 0 -35 -47z m128 22 c-28 -23 -126 -67 -134 -60 -2 2 10 22 25
44 28 39 31 41 84 41 l55 0 -30 -25z m86 9 c-89 -28 -89 -28 -61 -5 16 14 39
20 65 20 l40 -1 -44 -14z m423 -20 c95 -30 124 -45 201 -102 132 -98 211 -208
259 -358 33 -101 36 -122 36 -225 0 -104 -3 -123 -36 -221 -96 -289 -349 -480
-655 -495 -94 -5 -116 -2 -200 22 -123 35 -166 54 -234 106 -30 23 -58 40 -60
37 -3 -3 15 -19 40 -37 25 -18 45 -34 45 -36 0 -2 -13 1 -29 6 -32 11 -61 39
-65 62 -2 19 -64 81 -83 83 -23 4 -51 33 -62 65 -5 16 -8 29 -6 29 2 0 18 -20
36 -45 18 -25 34 -43 37 -40 3 2 -14 30 -37 60 -52 68 -71 111 -106 234 -24
84 -27 106 -22 200 4 86 11 125 40 207 45 132 136 260 233 329 36 26 63 49 60
52 -3 3 -23 -9 -46 -27 -45 -36 -58 -37 -30 -3 20 25 66 46 81 38 4 -3 19 1
32 10 13 8 69 31 123 49 90 31 110 35 218 35 110 1 127 -2 230 -35z m176 -9
c17 -25 29 -45 27 -45 -19 0 -97 35 -123 55 -37 29 -53 33 -33 9 12 -15 11
-16 -11 -9 -101 32 -101 32 7 33 l102 1 31 -44z m143 -18 c10 -32 17 -60 15
-63 -3 -2 -28 4 -56 14 -37 12 -59 28 -81 57 -17 22 -31 44 -31 48 0 4 30 7
67 5 l66 -3 20 -58z m141 39 c27 -21 30 -31 34 -90 2 -37 0 -66 -5 -66 -5 0
-37 9 -70 21 l-62 20 -20 62 c-12 33 -21 65 -21 69 0 4 26 8 58 8 45 0 63 -5
86 -24z m-236 -89 c7 -5 25 -11 40 -12 48 -5 82 -24 93 -52 6 -16 12 -40 14
-55 1 -15 7 -33 12 -40 6 -7 14 -24 17 -38 7 -24 6 -24 -19 5 -14 17 -30 38
-36 47 -8 14 -6 16 8 12 10 -4 4 6 -14 20 -18 15 -47 44 -64 64 -17 20 -29 29
-26 19 5 -14 3 -16 -11 -8 -9 6 -30 22 -47 36 -29 25 -29 26 -5 19 14 -3 31
-11 38 -17z m-935 -38 c-10 -17 -33 -43 -50 -56 -18 -14 -30 -29 -27 -34 4 -7
-53 -99 -62 -99 -11 0 21 69 39 83 17 15 18 18 4 13 -15 -5 -17 -2 -11 17 20
65 33 84 65 94 57 18 62 16 42 -18z m-111 -60 c-13 -40 -27 -60 -61 -85 -24
-19 -48 -34 -53 -34 -5 0 -8 30 -6 67 l3 66 50 18 c83 29 86 28 67 -32z m1263
32 l50 -18 3 -66 c2 -37 0 -67 -3 -67 -4 0 -26 14 -49 31 -31 22 -47 42 -55
71 -7 22 -15 46 -18 54 -7 18 10 17 72 -5z m-1395 -95 l0 -75 -57 -41 -57 -41
-18 53 c-30 87 -12 123 78 158 27 11 50 19 52 20 1 0 2 -34 2 -74z m1524 54
c80 -30 100 -72 75 -151 -6 -19 -13 -40 -15 -47 -3 -9 -23 0 -64 29 l-60 42 0
73 c0 41 2 74 5 74 2 0 29 -9 59 -20z m-1439 -129 c-9 -27 -23 -55 -31 -61
-15 -14 -20 -35 -5 -25 6 3 0 -23 -12 -57 -19 -54 -22 -59 -25 -35 -2 16 4 39
12 52 20 31 20 41 1 25 -13 -11 -15 -6 -15 39 0 37 5 55 18 66 47 39 67 53 71
50 1 -2 -4 -26 -14 -54z m1363 -104 c-1 -108 -1 -108 -33 -7 -7 22 -6 23 9 11
24 -20 20 -4 -9 33 -20 26 -55 104 -55 123 0 2 20 -10 45 -27 l44 -31 -1 -102z
m118 11 c7 -11 -25 -128 -35 -128 -3 0 -21 21 -38 48 -28 40 -33 57 -33 105
l0 57 50 -36 c27 -20 53 -40 56 -46z m-1566 14 c0 -49 -5 -65 -31 -100 -17
-23 -34 -40 -39 -37 -7 4 -34 97 -35 118 0 9 85 75 98 76 4 1 7 -25 7 -57z
m1641 -65 c60 -45 70 -82 36 -140 -44 -74 -49 -75 -95 -13 l-41 54 20 66 c11
36 24 66 29 66 5 0 28 -15 51 -33z m-1643 -149 c0 -96 -3 -126 -10 -108 -5 14
-7 41 -4 60 4 25 3 29 -3 15 -8 -19 -10 -18 -20 8 -24 61 -23 74 5 116 14 23
28 41 30 41 1 0 3 -60 2 -132z m1521 62 c5 -9 1 -35 -9 -65 -11 -30 -20 -44
-23 -35 -21 60 -27 89 -27 129 l1 46 25 -30 c14 -16 29 -37 33 -45z m-1570
-93 c13 -51 12 -58 -24 -168 -20 -63 -38 -120 -41 -126 -6 -21 -19 -15 -68 30
-58 54 -61 91 -15 160 17 26 32 47 34 47 2 0 20 -23 40 -50 21 -28 40 -49 42
-46 3 2 -11 26 -31 52 -20 26 -36 51 -36 56 0 14 73 107 80 103 4 -2 12 -28
19 -58z m1638 0 l32 -44 -41 -58 -42 -58 -18 54 c-18 52 -18 57 -2 111 19 65
22 64 71 -5z m-108 -42 c0 -16 -4 -39 -9 -50 -6 -14 -9 2 -9 50 0 48 3 64 9
50 5 -11 9 -33 9 -50z m190 -72 c44 -65 41 -87 -19 -145 -27 -26 -54 -48 -58
-48 -4 0 -18 30 -30 67 l-21 66 41 58 c22 32 44 56 48 54 5 -3 22 -26 39 -52z
m-150 -41 c1 -12 -11 -41 -26 -64 l-28 -42 -3 48 c-2 26 4 70 14 99 l17 52 13
-35 c7 -19 13 -45 13 -58z m-1520 -42 l0 -55 -29 35 c-39 46 -39 29 0 -20 26
-33 30 -46 30 -99 l0 -62 -47 33 c-26 18 -51 36 -56 39 -8 5 52 209 71 243 10
18 30 -58 31 -114z m1554 -53 c9 -30 17 -58 17 -63 0 -9 -94 -84 -105 -84 -3
0 -5 25 -5 56 0 45 5 63 30 100 17 24 34 44 39 44 4 0 15 -24 24 -53z m-1514
-18 c11 -34 18 -66 15 -71 -3 -5 -1 -15 5 -22 13 -15 43 -97 38 -103 -2 -2
-23 10 -45 27 -40 29 -42 33 -42 82 0 50 0 51 20 33 24 -21 27 -9 4 16 -15 17
-33 99 -21 99 3 0 14 -28 26 -61z m1394 -36 c-16 -26 -16 -27 0 -14 16 12 17
9 17 -40 0 -51 -2 -55 -39 -81 -22 -16 -42 -28 -45 -28 -7 0 22 80 40 108 8
12 13 26 10 31 -3 4 2 35 12 67 17 58 17 59 20 22 2 -23 -4 -48 -15 -65z
m-1487 -70 l54 -38 0 -72 c0 -40 -4 -73 -9 -73 -19 0 -96 32 -112 46 -28 25
-32 69 -14 124 9 28 19 50 22 50 2 0 29 -17 59 -37z m1650 -4 c23 -62 18 -104
-16 -133 -26 -21 -85 -46 -112 -46 -5 0 -8 31 -8 70 l0 69 53 40 c28 22 56 39
61 37 5 -1 15 -18 22 -37z m-1508 -100 c22 -16 68 -129 53 -129 -14 0 -106 33
-118 43 -8 6 -13 34 -13 74 l0 65 28 -19 c16 -10 38 -25 50 -34z m1262 16 c-6
-15 -20 -36 -33 -47 -18 -16 -19 -19 -3 -14 15 5 17 2 12 -18 -15 -62 -25 -74
-72 -90 -58 -20 -55 -20 -47 2 4 11 -2 9 -21 -9 -14 -15 -38 -29 -51 -31 -14
-3 -25 -4 -25 -3 0 6 90 65 98 63 10 -3 85 72 86 87 1 13 58 96 63 92 2 -3 -1
-17 -7 -32z m100 -34 l0 -69 -62 -21 c-34 -11 -63 -19 -66 -17 -2 3 4 28 13
56 13 40 27 59 64 85 25 19 47 35 49 35 1 0 2 -31 2 -69z m-1244 -75 c30 -30
54 -59 54 -64 0 -6 -21 -3 -49 5 -45 15 -49 19 -64 64 -8 28 -11 49 -5 49 5 0
34 -24 64 -54z m-30 -120 c27 -78 24 -82 -58 -73 -58 7 -76 19 -95 64 -13 33
-18 105 -7 115 3 4 35 -4 72 -16 l66 -22 22 -68z m1264 -15 c-6 -15 -20 -33
-32 -40 -25 -16 -138 -28 -138 -15 0 16 36 123 44 131 4 4 35 17 69 29 l62 21
3 -50 c2 -28 -2 -62 -8 -76z m-1122 -9 l33 -47 -62 -3 c-42 -2 -66 1 -74 10
-11 12 -45 101 -45 119 0 4 26 -1 58 -12 47 -16 63 -27 90 -67z m954 8 l-19
-55 -66 -3 c-37 -2 -67 1 -67 6 0 5 15 29 33 53 24 31 47 47 83 59 59 20 61
15 36 -60z m-882 2 c19 -8 44 -16 55 -17 33 -2 131 -38 117 -43 -22 -7 -79 7
-92 23 -7 8 -17 15 -23 15 -5 0 -2 -9 8 -20 18 -20 17 -20 -33 -20 -46 0 -53
3 -75 33 -41 55 -42 60 -16 52 13 -4 40 -14 59 -23z m743 -9 c-38 -51 -41 -53
-97 -53 -42 0 -47 2 -36 15 16 19 6 19 -25 -1 -13 -8 -36 -14 -52 -12 -24 3
-19 6 35 25 34 12 60 18 57 12 -9 -14 7 -11 25 6 17 15 85 43 108 44 8 1 2
-14 -15 -36z m-730 -117 c20 -30 37 -57 37 -59 0 -3 -22 -13 -50 -22 -55 -18
-99 -14 -124 14 -14 16 -46 93 -46 112 0 5 33 9 73 9 l72 0 38 -54z m137 24
c49 -39 66 -39 20 0 l-35 29 55 0 c56 -1 132 -21 114 -31 -34 -19 -238 -79
-243 -71 -3 5 -21 30 -39 56 l-33 47 62 0 c53 0 66 -4 99 -30z m540 24 c0 -2
-16 -27 -36 -55 -25 -33 -42 -48 -52 -44 -8 3 -34 10 -58 16 -25 6 -47 15 -49
19 -3 5 9 18 25 30 17 12 29 24 26 27 -2 3 -21 -7 -40 -22 -37 -28 -50 -29
-113 -4 -26 11 -27 12 -8 20 15 7 10 8 -16 4 -20 -3 -47 -1 -60 4 -16 6 46 9
179 9 111 1 202 -1 202 -4z m149 -53 c-16 -47 -27 -62 -54 -77 -33 -18 -36
-18 -95 1 l-61 20 41 58 41 57 74 0 74 0 -20 -59z m-441 6 c24 -7 43 -17 43
-21 0 -9 -87 -76 -99 -76 -5 0 -30 16 -56 36 -26 20 -50 34 -52 31 -3 -2 18
-21 46 -42 27 -20 50 -38 50 -40 0 -2 -21 -17 -47 -34 -70 -46 -106 -43 -160
16 -24 25 -42 51 -40 56 2 6 37 20 78 33 40 12 92 29 114 37 50 19 69 20 123
4z"/>
<path d="M5380 5051 c0 -6 5 -13 10 -16 6 -3 10 1 10 9 0 9 -4 16 -10 16 -5 0
-10 -4 -10 -9z"/>
<path d="M5845 5040 c-7 -12 12 -50 26 -50 16 0 22 29 9 45 -14 17 -26 19 -35
5z"/>
<path d="M1005 4980 c-19 -37 -19 -60 0 -60 15 0 45 49 45 75 0 26 -29 17 -45
-15z"/>
<path d="M5730 4991 c0 -10 7 -24 15 -31 12 -10 16 -9 21 4 6 16 -11 46 -27
46 -5 0 -9 -8 -9 -19z"/>
<path d="M842 4941 c-18 -32 -29 -61 -25 -64 3 -4 24 9 46 28 22 19 44 35 49
35 4 0 8 14 8 30 0 25 -4 30 -24 30 -18 0 -30 -12 -54 -59z"/>
<path d="M6060 4982 c0 -18 12 -42 21 -42 14 0 10 26 -6 40 -9 8 -15 8 -15 2z"/>
<path d="M1080 4967 c-24 -12 -41 -57 -23 -57 10 0 57 60 51 65 -2 2 -15 -2
-28 -8z"/>
<path d="M5390 4966 c0 -17 27 -29 35 -16 4 6 3 15 0 20 -9 15 -35 12 -35 -4z"/>
<path d="M1130 4940 c0 -13 5 -20 13 -17 6 2 12 10 12 17 0 7 -6 15 -12 18 -8
2 -13 -5 -13 -18z"/>
<path d="M5827 4953 c-20 -19 12 -103 38 -103 19 0 19 31 1 75 -15 34 -26 42
-39 28z"/>
<path d="M920 4931 c-7 -14 -7 -27 -1 -39 6 -10 7 -28 4 -40 -7 -27 19 -39 53
-24 28 13 32 47 7 61 -10 5 -18 20 -18 32 0 31 -30 37 -45 10z"/>
<path d="M1405 4890 c-4 -6 -1 -17 5 -26 14 -16 40 -2 40 22 0 16 -36 19 -45
4z"/>
<path d="M1150 4870 c0 -22 20 -26 38 -8 19 19 14 28 -13 28 -18 0 -25 -5 -25
-20z"/>
<path d="M5664 4874 c3 -9 6 -18 6 -20 0 -2 5 -4 10 -4 6 0 10 9 10 20 0 12
-7 20 -16 20 -11 0 -14 -5 -10 -16z"/>
<path d="M5724 4879 c-10 -17 23 -46 38 -31 8 8 8 15 -2 27 -15 18 -26 19 -36
4z"/>
<path d="M1210 4849 c0 -14 5 -19 17 -17 26 5 29 38 4 38 -15 0 -21 -6 -21
-21z"/>
<path d="M775 4829 c-19 -35 -10 -54 11 -25 13 19 20 56 9 56 -2 0 -12 -14
-20 -31z"/>
<path d="M830 4823 c-15 -19 -18 -29 -10 -37 13 -12 50 26 50 50 0 22 -17 16
-40 -13z"/>
<path d="M1043 4822 c-6 -4 -15 -20 -18 -35 -6 -23 -4 -27 14 -27 14 0 25 9
31 26 14 36 1 54 -27 36z"/>
<path d="M1257 4823 c-4 -3 -7 -17 -7 -30 0 -29 36 -32 45 -3 10 31 -17 55
-38 33z"/>
<path d="M5781 4821 c-12 -8 -12 -12 -2 -25 15 -18 37 -21 46 -6 7 11 -11 40
-24 40 -3 0 -12 -4 -20 -9z"/>
<path d="M6147 4823 c-20 -20 9 -73 33 -58 6 4 5 16 -5 36 -17 31 -18 32 -28
22z"/>
<path d="M5315 4811 c-8 -15 3 -31 21 -31 9 0 14 7 12 17 -4 20 -24 28 -33 14z"/>
<path d="M5620 4806 c0 -7 7 -19 15 -26 12 -10 16 -9 21 3 3 9 3 21 -1 27 -9
15 -35 12 -35 -4z"/>
<path d="M6072 4803 c-12 -24 0 -67 21 -71 11 -2 19 6 23 24 11 44 -25 84 -44
47z"/>
<path d="M875 4800 c-3 -5 -1 -18 5 -29 7 -14 7 -28 -1 -48 -11 -31 -4 -93 12
-93 17 0 41 71 34 99 -3 14 -9 38 -12 54 -5 27 -26 36 -38 17z"/>
<path d="M5975 4783 c4 -10 9 -27 12 -38 13 -59 28 -95 39 -95 22 0 26 20 9
46 -11 16 -14 35 -10 51 7 29 -9 53 -37 53 -15 0 -18 -4 -13 -17z"/>
<path d="M5425 4780 c-8 -13 13 -40 31 -40 19 0 18 15 -2 34 -18 19 -21 19
-29 6z"/>
<path d="M5925 4760 c-7 -12 12 -40 26 -40 5 0 9 11 9 25 0 25 -23 35 -35 15z"/>
<path d="M720 4718 c-28 -46 -27 -72 3 -63 56 17 67 17 67 2 0 -24 20 -31 37
-14 20 20 9 50 -15 43 -14 -5 -22 2 -33 26 -19 44 -35 45 -59 6z"/>
<path d="M6113 4714 c-27 -29 -30 -70 -7 -102 12 -18 13 -26 4 -37 -7 -8 -18
-15 -26 -15 -7 0 -18 -9 -24 -20 -8 -15 -17 -19 -36 -14 -23 6 -25 5 -16 -12
6 -11 20 -28 32 -39 21 -19 21 -19 27 3 3 12 12 22 19 22 8 0 14 5 14 10 0 6
12 15 26 20 26 10 26 12 19 74 -6 58 -4 66 16 85 18 17 20 23 9 36 -17 20 -31
18 -57 -11z"/>
<path d="M993 4714 c-9 -23 10 -69 27 -69 19 0 26 51 9 71 -15 18 -28 18 -36
-2z"/>
<path d="M5815 4711 c-10 -17 15 -53 33 -49 26 5 22 52 -5 56 -11 2 -24 -2
-28 -7z"/>
<path d="M6185 4677 c-27 -42 17 -116 55 -92 15 9 12 52 -5 85 -19 36 -30 37
-50 7z"/>
<path d="M1140 4660 c-9 -16 -8 -22 5 -26 19 -8 20 -6 29 24 9 29 -19 31 -34
2z"/>
<path d="M5952 4663 c2 -10 10 -18 18 -18 22 0 18 29 -3 33 -14 3 -18 -1 -15
-15z"/>
<path d="M5713 4639 c-14 -14 -6 -39 12 -39 18 0 26 27 11 39 -9 7 -16 7 -23
0z"/>
<path d="M842 4608 c-16 -16 -15 -29 7 -55 23 -28 37 -29 50 -4 8 15 5 24 -14
45 -28 30 -27 30 -43 14z"/>
<path d="M1283 4604 c-3 -8 -1 -20 6 -27 14 -14 47 15 37 32 -10 16 -36 13
-43 -5z"/>
<path d="M677 4570 c-6 -16 -15 -30 -18 -30 -13 0 -39 -31 -39 -46 0 -22 38
-17 45 6 3 11 12 20 20 20 16 0 55 47 55 66 0 8 -11 14 -26 14 -19 0 -28 -7
-37 -30z"/>
<path d="M5617 4594 c-4 -4 -7 -16 -7 -26 0 -20 25 -25 36 -7 8 13 -19 43 -29
33z"/>
<path d="M5922 4584 c4 -20 34 -41 45 -31 10 11 -11 41 -31 45 -12 3 -17 -2
-14 -14z"/>
<path d="M990 4555 c-10 -11 -10 -19 -2 -27 15 -15 44 -2 40 19 -4 23 -22 27
-38 8z"/>
<path d="M5770 4556 c0 -10 9 -16 21 -16 24 0 21 23 -4 28 -10 2 -17 -3 -17
-12z"/>
<path d="M6211 4556 c-9 -11 -8 -17 4 -30 18 -17 35 -13 35 8 0 24 -26 38 -39
22z"/>
<path d="M6265 4560 c-3 -5 -1 -18 4 -29 6 -11 7 -30 2 -49 -11 -37 7 -69 33
-59 15 6 17 14 11 50 -7 39 -30 97 -40 97 -2 0 -7 -4 -10 -10z"/>
<path d="M727 4535 c-7 -16 8 -29 23 -20 15 9 12 35 -4 35 -8 0 -16 -7 -19
-15z"/>
<path d="M827 4533 c-4 -3 -7 -24 -7 -47 0 -27 -7 -47 -21 -62 -28 -30 -19
-56 18 -52 28 3 28 4 31 86 3 75 -3 94 -21 75z"/>
<path d="M5892 4474 c2 -11 11 -20 22 -22 13 -3 17 1 14 14 -2 11 -11 20 -22
22 -13 3 -17 -1 -14 -14z"/>
<path d="M5602 4458 c2 -12 11 -24 21 -26 14 -3 18 1 15 20 -2 12 -11 24 -21
26 -14 3 -18 -1 -15 -20z"/>
<path d="M6160 4460 c-11 -20 1 -60 18 -60 17 0 32 25 32 52 0 21 -5 28 -20
28 -10 0 -24 -9 -30 -20z"/>
<path d="M6030 4441 c0 -10 7 -24 15 -31 12 -10 16 -9 21 4 6 16 -11 46 -27
46 -5 0 -9 -8 -9 -19z"/>
<path d="M1162 4434 c4 -21 22 -23 26 -1 2 10 -3 17 -13 17 -10 0 -15 -6 -13
-16z"/>
<path d="M934 4429 c-8 -14 11 -33 25 -25 6 4 11 14 11 22 0 16 -26 19 -36 3z"/>
<path d="M1095 4430 c-8 -14 3 -30 21 -30 8 0 14 9 14 20 0 21 -24 28 -35 10z"/>
<path d="M5706 4433 c-11 -11 -6 -23 9 -23 8 0 15 4 15 9 0 13 -16 22 -24 14z"/>
<path d="M630 4390 c-32 -63 -18 -82 26 -35 36 39 41 67 12 73 -11 2 -24 -10
-38 -38z"/>
<path d="M5753 4394 c-3 -8 2 -23 11 -32 14 -15 18 -15 26 -3 10 16 -4 51 -21
51 -5 0 -12 -7 -16 -16z"/>
<path d="M577 4378 c-7 -25 -3 -33 12 -23 13 8 15 45 2 45 -5 0 -11 -10 -14
-22z"/>
<path d="M704 4375 c-7 -18 3 -35 22 -35 8 0 14 10 14 25 0 27 -27 35 -36 10z"/>
<path d="M897 4384 c-15 -15 -7 -45 11 -42 9 2 17 12 17 22 0 20 -16 31 -28
20z"/>
<path d="M6006 4383 c-12 -12 -6 -43 9 -43 8 0 15 9 15 19 0 21 -13 34 -24 24z"/>
<path d="M6070 4371 c0 -5 5 -13 10 -16 6 -3 10 -2 10 4 0 5 -4 13 -10 16 -5
3 -10 2 -10 -4z"/>
<path d="M6121 4360 c-17 -10 -7 -40 14 -40 8 0 15 9 15 19 0 24 -12 32 -29
21z"/>
<path d="M6233 4363 c-17 -6 -16 -58 1 -72 19 -16 38 10 34 45 -3 28 -14 36
-35 27z"/>
<path d="M5954 4345 c-8 -19 11 -65 26 -65 15 0 8 72 -7 78 -7 2 -16 -4 -19
-13z"/>
<path d="M566 4318 c-19 -27 -5 -48 19 -28 16 14 21 50 6 50 -6 0 -17 -10 -25
-22z"/>
<path d="M933 4324 c-8 -21 13 -42 28 -27 13 13 5 43 -11 43 -6 0 -13 -7 -17
-16z"/>
<path d="M5896 4333 c-14 -15 -5 -43 14 -43 13 0 20 7 20 19 0 19 -23 35 -34
24z"/>
<path d="M6298 4326 c-15 -14 -18 -159 -5 -173 4 -3 7 -13 7 -21 0 -8 13 -29
29 -46 76 -79 78 -83 68 -101 -5 -9 -7 -47 -5 -84 3 -50 1 -69 -10 -77 -17
-12 -11 -48 12 -79 26 -34 37 -1 33 93 -3 70 -1 85 13 95 25 17 34 53 17 68
-7 7 -12 23 -9 36 5 28 -5 73 -18 73 -5 0 -12 -9 -15 -20 -3 -11 -10 -20 -15
-20 -14 0 -50 65 -50 91 0 12 -10 33 -21 46 -17 17 -19 23 -8 27 43 13 49 16
49 28 0 18 -38 78 -49 78 -5 0 -16 -6 -23 -14z"/>
<path d="M763 4318 c-4 -7 -13 -22 -18 -33 -7 -13 -19 -19 -33 -17 -13 2 -42
-4 -66 -13 -38 -15 -45 -22 -51 -52 -3 -20 -12 -45 -20 -57 -19 -31 -8 -128
14 -124 13 3 15 14 13 61 -4 55 -2 58 27 74 17 10 35 30 40 46 11 30 32 35 51
12 15 -18 30 -11 30 14 0 10 9 26 20 36 11 10 20 29 20 42 0 25 -14 31 -27 11z"/>
<path d="M6125 4268 c-12 -31 50 -118 74 -103 17 10 13 21 -16 52 -16 16 -33
38 -40 48 -10 18 -12 18 -18 3z"/>
<path d="M6187 4274 c-9 -10 4 -34 19 -34 8 0 14 9 14 20 0 19 -19 27 -33 14z"/>
<path d="M1207 4247 c-7 -19 8 -41 22 -33 16 10 14 46 -3 46 -8 0 -16 -6 -19
-13z"/>
<path d="M820 4229 c0 -14 5 -19 17 -17 26 5 29 38 4 38 -15 0 -21 -6 -21 -21z"/>
<path d="M6370 4230 c-16 -29 -9 -74 12 -78 24 -5 37 27 26 66 -10 37 -23 41
-38 12z"/>
<path d="M522 4193 c-14 -28 -22 -83 -12 -83 16 0 50 52 50 76 0 28 -25 32
-38 7z"/>
<path d="M6045 4200 c-7 -12 12 -40 27 -40 13 0 6 43 -9 47 -6 2 -14 -1 -18
-7z"/>
<path d="M5870 4191 c-34 -9 -34 -45 0 -49 33 -4 63 18 54 41 -7 18 -14 19
-54 8z"/>
<path d="M807 4174 c-9 -9 4 -35 14 -28 5 3 9 12 9 20 0 14 -12 19 -23 8z"/>
<path d="M860 4149 c0 -24 23 -21 28 4 2 10 -3 17 -12 17 -10 0 -16 -9 -16
-21z"/>
<path d="M5990 4147 c0 -29 18 -53 48 -62 16 -5 22 -2 22 9 0 8 -5 18 -11 21
-5 4 -14 18 -19 31 -12 31 -40 32 -40 1z"/>
<path d="M1175 4150 c-11 -17 5 -32 21 -19 7 6 11 15 8 20 -7 12 -21 11 -29
-1z"/>
<path d="M5724 4149 c-10 -17 13 -36 27 -22 12 12 4 33 -11 33 -5 0 -12 -5
-16 -11z"/>
<path d="M733 4133 c-7 -2 -13 -13 -13 -23 0 -25 -17 -35 -35 -20 -16 13 -45
7 -45 -10 0 -6 8 -13 18 -17 9 -3 25 -15 34 -27 l18 -21 6 23 c4 13 17 28 31
33 29 11 39 34 23 54 -13 16 -17 17 -37 8z"/>
<path d="M6246 4113 c-4 -4 -17 -8 -29 -8 -12 0 -23 -7 -25 -18 -4 -22 27 -35
39 -16 7 11 14 9 35 -13 21 -21 29 -41 35 -88 4 -34 14 -69 23 -79 22 -25 21
-44 -4 -36 -11 3 -30 -1 -45 -11 -20 -13 -29 -14 -34 -5 -4 6 -15 9 -24 5 -18
-7 -31 -39 -22 -54 10 -16 35 -12 42 6 6 15 8 15 20 -2 14 -18 15 -18 30 4 9
12 25 22 37 22 47 0 51 13 28 92 -12 40 -22 84 -22 97 0 13 -11 36 -25 53 -14
16 -25 36 -25 44 0 15 -22 19 -34 7z"/>
<path d="M810 4080 c-9 -16 -8 -22 4 -26 21 -8 36 3 36 27 0 25 -26 25 -40 -1z"/>
<path d="M6080 4051 c0 -11 5 -23 11 -27 14 -8 29 14 22 33 -8 20 -33 16 -33
-6z"/>
<path d="M5740 4050 c-13 -8 -13 -11 2 -26 16 -17 18 -17 24 0 9 23 -7 38 -26
26z"/>
<path d="M507 4029 c-3 -12 -1 -32 4 -46 8 -21 12 -23 24 -13 8 7 15 28 15 46
0 27 -4 34 -19 34 -11 0 -21 -9 -24 -21z"/>
<path d="M1146 4041 c-9 -14 4 -41 19 -41 21 0 28 19 15 35 -14 17 -26 19 -34
6z"/>
<path d="M6203 4006 c-13 -6 -23 -14 -23 -19 0 -4 -9 -3 -19 2 -14 8 -22 7
-30 -3 -11 -13 -6 -45 8 -47 42 -5 64 -3 68 8 8 20 29 15 46 -9 12 -19 17 -21
28 -10 11 11 11 17 -1 39 -22 38 -50 52 -77 39z"/>
<path d="M631 3992 c-7 -14 -5 -26 10 -48 10 -16 19 -40 19 -53 0 -16 4 -21
15 -17 10 4 15 -1 15 -15 0 -31 24 -17 28 16 3 22 0 26 -12 22 -12 -5 -16 0
-17 21 -3 83 -4 87 -26 90 -13 2 -26 -4 -32 -16z"/>
<path d="M967 4004 c-11 -11 -8 -44 3 -44 15 0 24 30 13 41 -5 5 -12 6 -16 3z"/>
<path d="M466 3952 c-3 -18 -9 -47 -12 -64 l-6 -33 20 20 c28 27 36 66 19 89
-14 19 -15 18 -21 -12z"/>
<path d="M5945 3971 c-9 -16 15 -55 27 -43 12 12 7 44 -9 49 -6 2 -14 -1 -18
-6z"/>
<path d="M572 3934 c-26 -18 -30 -75 -7 -94 12 -10 17 -7 26 16 28 76 21 106
-19 78z"/>
<path d="M820 3894 c-9 -10 -10 -18 -3 -25 8 -8 14 -5 22 9 13 25 -2 38 -19
16z"/>
<path d="M5930 3890 c0 -15 5 -20 18 -18 9 2 17 10 17 18 0 8 -8 16 -17 18
-13 2 -18 -3 -18 -18z"/>
<path d="M996 3874 c-10 -26 -7 -44 8 -44 14 0 29 37 20 52 -8 13 -21 9 -28
-8z"/>
<path d="M745 3859 c-8 -23 7 -45 24 -35 6 4 11 18 11 32 0 30 -26 32 -35 3z"/>
<path d="M6470 3868 c0 -9 -7 -29 -15 -44 -25 -49 -14 -84 27 -84 17 0 18 6
12 63 -6 56 -24 105 -24 65z"/>
<path d="M6040 3835 c0 -8 8 -15 17 -15 9 0 24 -7 34 -16 23 -21 49 -11 49 17
0 18 -4 21 -30 16 -16 -4 -32 -2 -35 3 -10 16 -35 12 -35 -5z"/>
<path d="M476 3804 c-27 -26 -19 -49 22 -67 63 -28 89 -18 94 34 2 18 -2 24
-17 24 -11 0 -30 6 -42 13 -28 16 -38 15 -57 -4z"/>
<path d="M834 3785 c-8 -33 8 -52 25 -31 15 18 11 48 -6 53 -7 3 -15 -7 -19
-22z"/>
<path d="M6342 3743 c4 -52 28 -56 28 -4 0 30 -4 41 -16 41 -11 0 -14 -9 -12
-37z"/>
<path d="M5900 3761 c0 -5 6 -14 14 -20 16 -13 32 2 21 19 -8 12 -35 13 -35 1z"/>
<path d="M5843 3745 c-3 -9 -3 -18 0 -22 10 -10 37 6 37 22 0 20 -29 20 -37 0z"/>
<path d="M710 3715 c0 -20 4 -26 18 -23 9 2 17 12 17 23 0 11 -8 21 -17 23
-14 3 -18 -3 -18 -23z"/>
<path d="M5696 3731 c-7 -11 18 -33 27 -24 4 3 7 12 7 20 0 15 -26 18 -34 4z"/>
<path d="M450 3704 c-6 -14 -10 -31 -10 -38 0 -6 -5 -17 -11 -23 -14 -14 -8
-65 9 -71 7 -2 12 5 12 15 0 10 9 37 20 58 20 39 20 85 0 85 -6 0 -15 -12 -20
-26z"/>
<path d="M617 3713 c-12 -11 -7 -40 8 -53 22 -18 39 1 31 34 -6 25 -25 34 -39
19z"/>
<path d="M6237 3703 c-12 -11 -8 -38 10 -62 15 -23 17 -23 30 -6 17 24 17 40
-3 59 -17 17 -27 20 -37 9z"/>
<path d="M6424 3683 c-9 -34 8 -59 36 -55 13 1 29 -3 36 -9 11 -9 14 -5 14 25
0 24 -5 36 -14 36 -7 0 -19 7 -26 15 -19 23 -39 18 -46 -12z"/>
<path d="M750 3670 c0 -11 5 -20 10 -20 6 0 10 9 10 20 0 11 -4 20 -10 20 -5
0 -10 -9 -10 -20z"/>
<path d="M6143 3663 c-19 -7 -16 -37 5 -56 23 -21 36 -21 51 -3 23 28 -19 71
-56 59z"/>
<path d="M6366 3661 c-8 -12 34 -121 45 -121 12 0 11 -37 -1 -45 -5 -3 -10 -1
-10 4 0 6 -9 11 -20 11 -16 0 -20 -7 -20 -34 0 -41 18 -56 36 -32 11 16 13 16
22 -1 9 -14 13 -16 23 -5 17 16 29 15 29 -3 0 -26 19 -16 25 13 4 15 10 35 16
44 12 23 12 41 -1 33 -17 -10 -50 5 -50 23 0 10 -9 23 -20 29 -10 7 -24 31
-31 53 -11 38 -31 51 -43 31z"/>
<path d="M490 3640 c-12 -23 4 -63 39 -94 22 -20 51 -16 51 7 0 12 -67 107
-76 107 -2 0 -8 -9 -14 -20z"/>
<path d="M5845 3650 c3 -5 8 -10 11 -10 2 0 4 5 4 10 0 6 -5 10 -11 10 -5 0
-7 -4 -4 -10z"/>
<path d="M610 3581 c0 -25 14 -41 37 -41 20 0 24 4 21 23 -2 16 -11 23 -30 25
-16 2 -28 -1 -28 -7z"/>
<path d="M717 3572 c-23 -25 -21 -39 3 -47 27 -9 50 11 50 41 0 29 -29 32 -53
6z"/>
<path d="M874 3575 c-7 -18 19 -88 35 -93 14 -5 14 20 -1 69 -12 41 -25 49
-34 24z"/>
<path d="M6315 3580 c-11 -17 5 -51 23 -48 23 4 23 52 0 56 -9 2 -19 -2 -23
-8z"/>
<path d="M974 3555 c-7 -18 3 -35 22 -35 8 0 14 10 14 25 0 27 -27 35 -36 10z"/>
<path d="M5965 3560 c-8 -13 14 -42 26 -34 5 3 9 14 9 25 0 20 -24 26 -35 9z"/>
<path d="M6257 3522 c-19 -21 -23 -67 -5 -78 17 -11 50 35 46 64 -4 32 -20 38
-41 14z"/>
<path d="M6060 3520 c0 -5 5 -10 11 -10 5 0 7 5 4 10 -3 6 -8 10 -11 10 -2 0
-4 -4 -4 -10z"/>
<path d="M582 3503 c-5 -10 -12 -31 -16 -48 -4 -16 -17 -40 -28 -52 -21 -23
-17 -43 9 -43 21 0 42 29 43 58 0 13 7 36 15 53 15 29 13 49 -5 49 -5 0 -13
-8 -18 -17z"/>
<path d="M6092 3498 c2 -13 10 -23 18 -23 8 0 16 10 18 23 3 17 -2 22 -18 22
-16 0 -21 -5 -18 -22z"/>
<path d="M421 3496 c-19 -23 -10 -61 14 -61 16 0 20 7 20 34 0 38 -15 50 -34
27z"/>
<path d="M494 3485 c-3 -14 -3 -32 0 -41 10 -27 31 -9 34 29 2 28 -1 37 -12
37 -9 0 -18 -11 -22 -25z"/>
<path d="M647 3483 c-3 -5 -2 -32 0 -60 4 -36 10 -53 19 -53 10 0 14 16 14 60
0 46 -3 60 -14 60 -8 0 -17 -3 -19 -7z"/>
<path d="M5994 3475 c-7 -18 2 -45 15 -45 5 0 11 7 15 15 7 18 -2 45 -15 45
-5 0 -12 -7 -15 -15z"/>
<path d="M857 3443 c-13 -12 -7 -43 7 -43 19 0 28 14 20 34 -7 17 -16 20 -27
9z"/>
<path d="M5852 3418 c5 -32 28 -35 28 -4 0 17 -5 26 -16 26 -10 0 -14 -7 -12
-22z"/>
<path d="M6215 3388 c8 -58 12 -68 26 -68 12 0 12 62 -1 94 -17 47 -33 31 -25
-26z"/>
<path d="M6326 3394 c-16 -43 2 -79 47 -90 33 -8 35 6 11 66 -17 42 -46 54
-58 24z"/>
<path d="M6436 3384 c-3 -9 -6 -26 -6 -39 0 -12 -7 -28 -15 -35 -8 -7 -15 -22
-15 -34 0 -11 -7 -30 -15 -40 -23 -30 -18 -46 15 -57 36 -13 39 -39 10 -87
-11 -18 -20 -38 -20 -45 0 -8 -12 -24 -26 -38 -33 -31 -44 -59 -32 -82 9 -18
11 -18 33 3 13 13 27 36 30 52 4 16 24 49 46 74 22 26 39 56 39 69 0 14 9 29
20 35 13 7 20 21 20 40 0 28 -2 29 -20 18 -27 -17 -54 0 -58 35 -3 27 22 59
64 83 18 11 18 12 -6 37 -28 30 -55 35 -64 11z"/>
<path d="M417 3384 c-4 -4 -7 -18 -7 -31 0 -26 27 -32 37 -7 6 17 -19 49 -30
38z"/>
<path d="M470 3348 c0 -32 26 -102 39 -106 14 -5 15 82 1 109 -15 26 -40 24
-40 -3z"/>
<path d="M706 3335 c-8 -23 17 -90 34 -90 11 0 15 10 14 37 -2 53 -34 89 -48
53z"/>
<path d="M6054 3335 c-9 -23 14 -45 26 -25 5 8 8 19 7 24 -6 17 -27 18 -33 1z"/>
<path d="M6115 3340 c-7 -12 2 -30 16 -30 12 0 12 27 0 35 -5 3 -12 1 -16 -5z"/>
<path d="M6267 3323 c-14 -13 -7 -50 12 -67 26 -23 45 -11 36 23 -10 41 -32
61 -48 44z"/>
<path d="M608 3285 c-6 -14 -22 -32 -35 -40 -14 -9 -23 -25 -23 -40 0 -30 31
-96 43 -92 4 1 10 31 12 66 2 53 7 68 26 81 14 11 20 23 16 34 -9 23 -26 20
-39 -9z"/>
<path d="M966 3291 c-9 -14 4 -41 20 -41 8 0 14 10 14 25 0 25 -23 35 -34 16z"/>
<path d="M6176 3263 c-12 -12 -6 -43 9 -43 8 0 15 9 15 19 0 21 -13 34 -24 24z"/>
<path d="M431 3215 c-16 -55 -10 -74 21 -68 20 4 25 -1 35 -39 10 -36 9 -47
-3 -66 -9 -14 -22 -21 -30 -18 -20 8 -19 -67 1 -84 21 -18 45 4 45 41 0 30 24
41 33 17 4 -10 7 -10 18 0 12 11 11 18 -4 43 -9 17 -17 46 -17 65 0 22 -7 40
-20 51 -11 10 -20 28 -20 41 0 30 -17 62 -33 62 -7 0 -19 -20 -26 -45z"/>
<path d="M930 3210 c0 -13 5 -20 13 -17 6 2 12 10 12 17 0 7 -6 15 -12 18 -8
2 -13 -5 -13 -18z"/>
<path d="M1097 3203 c-4 -3 -7 -15 -7 -25 0 -28 34 -19 38 10 3 21 -16 31 -31
15z"/>
<path d="M5930 3180 c0 -11 5 -20 10 -20 6 0 10 9 10 20 0 11 -4 20 -10 20 -5
0 -10 -9 -10 -20z"/>
<path d="M6164 3179 c-3 -6 -1 -16 5 -22 9 -9 14 -8 21 3 9 15 4 30 -10 30 -5
0 -12 -5 -16 -11z"/>
<path d="M6236 3168 c-11 -35 -15 -98 -7 -98 18 0 41 44 41 77 0 23 -5 33 -15
33 -9 0 -17 -6 -19 -12z"/>
<path d="M6310 3160 c0 -13 7 -20 20 -20 10 0 23 -7 28 -17 12 -21 42 -10 42
17 0 15 -7 20 -24 20 -14 0 -28 5 -31 10 -11 18 -35 11 -35 -10z"/>
<path d="M782 3156 c1 -10 8 -17 13 -17 15 1 12 24 -3 29 -9 3 -13 -2 -10 -12z"/>
<path d="M674 3145 c-9 -21 13 -68 29 -62 20 6 15 71 -6 75 -9 2 -20 -4 -23
-13z"/>
<path d="M6497 3143 c-4 -3 -7 -20 -7 -38 0 -17 -5 -36 -11 -42 -12 -12 -2
-83 12 -83 5 0 9 12 10 28 0 15 2 53 5 85 6 56 4 64 -9 50z"/>
<path d="M800 3097 c0 -33 27 -56 36 -32 8 19 -5 46 -24 53 -7 2 -12 -6 -12
-21z"/>
<path d="M6114 3105 c-3 -8 -3 -19 1 -25 9 -14 35 6 35 26 0 19 -29 18 -36 -1z"/>
<path d="M952 3088 c-7 -7 -12 -22 -12 -35 0 -32 28 -30 36 3 8 30 -7 49 -24
32z"/>
<path d="M550 3075 c0 -8 5 -15 10 -15 6 0 10 7 10 15 0 8 -4 15 -10 15 -5 0
-10 -7 -10 -15z"/>
<path d="M6266 3081 c-9 -14 4 -41 19 -41 18 0 26 15 19 34 -7 17 -29 21 -38
7z"/>
<path d="M634 3035 c-8 -20 16 -39 30 -25 6 6 14 3 22 -8 12 -16 13 -15 14 4
0 12 -8 24 -17 28 -10 3 -24 9 -30 12 -7 3 -16 -2 -19 -11z"/>
<path d="M5992 3034 c4 -21 22 -23 26 -1 2 10 -3 17 -13 17 -10 0 -15 -6 -13
-16z"/>
<path d="M575 3028 c-10 -33 -15 -87 -9 -102 8 -21 24 -11 24 15 0 11 7 30 15
43 9 13 13 31 9 40 -7 19 -33 21 -39 4z"/>
<path d="M5662 3029 c2 -6 8 -10 13 -10 5 0 11 4 13 10 2 6 -4 11 -13 11 -9 0
-15 -5 -13 -11z"/>
<path d="M742 3004 c3 -19 34 -41 43 -32 4 4 4 16 0 27 -8 25 -48 29 -43 5z"/>
<path d="M6226 2994 c-22 -21 -19 -94 3 -94 12 0 53 89 46 100 -9 15 -31 12
-49 -6z"/>
<path d="M612 2937 c-22 -27 -24 -65 -4 -110 35 -79 67 -77 38 3 -11 30 -15
60 -11 79 7 32 -6 48 -23 28z"/>
<path d="M5887 2933 c-15 -15 -5 -32 24 -42 42 -14 49 -14 49 4 0 8 -7 15 -15
15 -9 0 -18 7 -21 15 -6 16 -26 20 -37 8z"/>
<path d="M6095 2889 c-25 -49 -27 -79 -5 -79 5 0 10 8 10 19 0 10 9 30 20 44
22 27 26 52 10 62 -5 3 -21 -17 -35 -46z"/>
<path d="M6462 2918 c-17 -18 -24 -19 -36 -9 -26 22 -48 6 -44 -31 4 -40 40
-52 58 -19 6 12 17 21 24 21 12 0 32 47 23 56 -2 2 -13 -6 -25 -18z"/>
<path d="M697 2924 c-4 -4 -7 -20 -7 -36 0 -23 4 -29 18 -26 11 2 17 13 17 32
0 29 -14 43 -28 30z"/>
<path d="M500 2898 c0 -13 -7 -34 -16 -46 -21 -30 -15 -66 13 -70 18 -3 23 3
28 31 13 70 11 101 -7 105 -13 2 -18 -3 -18 -20z"/>
<path d="M5980 2870 c0 -15 5 -20 18 -18 9 2 17 10 17 18 0 8 -8 16 -17 18
-13 2 -18 -3 -18 -18z"/>
<path d="M860 2865 c0 -8 5 -15 10 -15 6 0 10 7 10 15 0 8 -4 15 -10 15 -5 0
-10 -7 -10 -15z"/>
<path d="M6262 2863 c-11 -22 -5 -43 13 -43 18 0 67 -26 76 -42 5 -7 9 -25 9
-40 0 -37 10 -58 27 -58 12 0 14 8 9 34 -7 36 12 63 38 53 21 -8 36 13 36 50
0 35 -8 41 -28 21 -18 -18 -84 -10 -102 12 -23 28 -66 36 -78 13z"/>
<path d="M957 2854 c-10 -11 -9 -52 3 -59 6 -3 13 1 16 10 8 19 -8 60 -19 49z"/>
<path d="M543 2825 c-15 -41 22 -115 59 -115 23 0 23 25 -1 58 -10 15 -22 37
-25 50 -8 25 -24 29 -33 7z"/>
<path d="M695 2818 c-2 -7 -6 -35 -7 -63 -2 -40 0 -50 15 -53 13 -3 17 3 17
24 0 15 7 32 17 39 20 15 12 39 -17 55 -15 8 -21 8 -25 -2z"/>
<path d="M810 2815 c-10 -13 -8 -22 15 -56 33 -46 41 -53 50 -39 7 11 -35 109
-46 110 -4 0 -12 -7 -19 -15z"/>
<path d="M1007 2816 c-3 -8 0 -22 7 -31 11 -15 13 -15 25 -1 15 18 8 46 -13
46 -7 0 -16 -6 -19 -14z"/>
<path d="M6190 2800 c-9 -16 -8 -22 6 -27 16 -6 36 14 31 31 -6 19 -26 17 -37
-4z"/>
<path d="M1000 2740 c0 -11 7 -20 15 -20 8 0 15 9 15 20 0 11 -7 20 -15 20 -8
0 -15 -9 -15 -20z"/>
<path d="M495 2730 c-12 -20 6 -78 27 -84 19 -4 20 -10 14 -52 -6 -49 19 -158
35 -148 5 2 6 10 4 17 -16 53 -14 65 11 82 22 14 31 15 55 5 16 -7 35 -10 43
-7 20 8 9 45 -17 53 -25 8 -52 33 -60 56 -3 10 -18 20 -32 24 -18 4 -28 15
-32 35 -5 29 -35 40 -48 19z m108 -130 c-6 -22 -18 -26 -28 -10 -8 13 3 30 20
30 8 0 11 -7 8 -20z"/>
<path d="M6094 2725 c-7 -17 4 -37 17 -30 12 8 12 45 -1 45 -6 0 -13 -7 -16
-15z"/>
<path d="M6246 2724 c-12 -31 -7 -74 9 -74 16 0 35 38 35 71 0 23 -35 26 -44
3z"/>
<path d="M6187 2717 c-3 -8 -2 -20 3 -27 11 -18 42 -4 38 17 -4 22 -34 29 -41
10z"/>
<path d="M1554 2702 c-30 -25 -44 -55 -44 -94 0 -67 67 -116 133 -97 118 32
96 210 -26 209 -25 -1 -51 -8 -63 -18z"/>
<path d="M5836 2704 c-10 -27 -7 -54 8 -54 15 0 26 21 26 51 0 23 -25 25 -34
3z"/>
<path d="M6112 2674 c-24 -17 -31 -64 -9 -64 20 0 47 33 47 58 0 26 -8 27 -38
6z"/>
<path d="M1970 2200 l0 -480 245 0 245 0 0 90 0 90 -150 0 -150 0 0 390 0 390
-95 0 -95 0 0 -480z"/>
<path d="M726 2635 c-7 -20 3 -45 19 -45 19 0 38 28 31 45 -7 19 -42 19 -50 0z"/>
<path d="M6278 2626 c-9 -44 5 -53 69 -48 61 5 73 13 73 50 0 28 -25 29 -40 2
-6 -11 -17 -20 -25 -20 -8 0 -20 9 -27 20 -18 28 -45 25 -50 -4z"/>
<path d="M1002 2614 c4 -21 22 -23 26 -1 2 10 -3 17 -13 17 -10 0 -15 -6 -13
-16z"/>
<path d="M5707 2603 c-10 -9 -9 -53 1 -53 14 0 32 23 32 42 0 18 -20 25 -33
11z"/>
<path d="M1134 2589 c-10 -17 23 -46 38 -31 8 8 8 15 -2 27 -15 18 -26 19 -36
4z"/>
<path d="M5977 2593 c-4 -3 -7 -15 -7 -25 0 -26 24 -17 28 10 3 21 -8 29 -21
15z"/>
<path d="M816 2572 c-10 -16 21 -85 36 -80 22 8 20 35 -5 63 -15 18 -26 24
-31 17z"/>
<path d="M880 2544 c0 -45 24 -42 28 4 2 24 -1 32 -12 32 -12 0 -16 -10 -16
-36z"/>
<path d="M6187 2562 c-9 -10 -17 -24 -17 -30 0 -7 -9 -21 -20 -32 -28 -28 -26
-50 5 -50 20 0 25 -5 25 -25 0 -15 -6 -25 -14 -25 -8 0 -18 -9 -21 -20 -3 -11
-15 -25 -26 -30 -33 -18 -20 -100 14 -87 10 4 13 13 10 27 -4 13 2 32 16 50
11 16 21 34 21 40 0 6 5 8 11 4 6 -3 15 0 20 7 15 24 10 62 -13 86 -21 23 -21
23 -1 23 27 0 45 23 41 52 -4 29 -29 34 -51 10z"/>
<path d="M700 2523 c0 -20 18 -43 33 -43 4 0 7 12 5 27 -4 32 -38 46 -38 16z"/>
<path d="M6303 2513 c-19 -10 -33 -24 -33 -34 0 -10 -4 -21 -10 -24 -5 -3 -10
-15 -10 -27 0 -16 4 -19 24 -14 24 6 25 3 28 -41 2 -35 7 -48 18 -48 22 0 37
79 22 118 -10 27 -9 34 8 52 11 12 20 24 20 28 0 12 -33 7 -67 -10z"/>
<path d="M6067 2513 c-11 -10 -8 -53 2 -53 14 0 41 41 35 52 -6 10 -28 11 -37
1z"/>
<path d="M625 2498 c-11 -37 -11 -199 0 -214 20 -27 33 -9 25 35 -4 23 -2 50
4 65 10 25 12 26 34 11 12 -9 22 -25 22 -36 0 -22 26 -37 41 -22 13 13 1 43
-17 43 -8 0 -14 8 -14 19 0 10 -12 36 -26 57 -36 53 -60 68 -69 42z"/>
<path d="M5555 2500 c-7 -12 2 -30 16 -30 12 0 12 27 0 35 -5 3 -12 1 -16 -5z"/>
<path d="M773 2464 c-8 -22 9 -48 36 -52 17 -3 21 2 21 22 0 15 -8 30 -19 36
-26 14 -31 13 -38 -6z"/>
<path d="M5770 2446 c0 -27 34 -46 52 -28 18 18 4 47 -25 50 -23 3 -27 0 -27
-22z"/>
<path d="M5930 2456 c0 -21 21 -31 31 -15 14 22 11 29 -11 29 -11 0 -20 -6
-20 -14z"/>
<path d="M5976 2451 c-4 -5 -2 -12 3 -15 5 -4 12 -2 15 3 4 5 2 12 -3 15 -5 4
-12 2 -15 -3z"/>
<path d="M2852 2409 c-164 -27 -270 -149 -280 -320 -10 -167 54 -281 193 -346
54 -25 71 -28 165 -28 95 0 110 3 160 28 70 36 106 70 136 129 13 26 24 49 24
51 0 3 -28 8 -62 11 -35 4 -75 10 -89 13 -21 4 -28 1 -34 -16 -9 -29 -84 -71
-126 -71 -90 0 -150 43 -174 124 l-14 46 256 0 256 0 -5 73 c-5 82 -41 173
-86 220 -37 39 -106 73 -177 86 -65 12 -68 12 -143 0z m143 -143 c35 -15 75
-67 75 -98 0 -16 -14 -18 -155 -18 l-155 0 15 37 c9 21 23 45 32 55 33 36 129
48 188 24z"/>
<path d="M6066 2379 c-25 -40 -29 -69 -7 -69 14 0 53 92 43 102 -5 5 -21 -11
-36 -33z"/>
<path d="M950 2396 c0 -18 30 -30 43 -17 5 5 6 14 3 20 -10 16 -46 13 -46 -3z"/>
<path d="M3589 2403 c-15 -2 -51 -18 -80 -36 -51 -31 -86 -75 -103 -134 -7
-23 -14 -20 137 -49 20 -4 27 -2 27 10 0 9 13 30 29 48 28 31 33 33 99 33 83
0 112 -18 112 -71 0 -42 -12 -48 -154 -84 -140 -35 -156 -41 -200 -81 -66 -57
-84 -144 -47 -224 22 -49 48 -73 98 -91 82 -29 194 -12 275 41 38 26 48 20 48
-26 0 -17 8 -19 89 -19 l89 0 -4 143 c-13 433 -9 410 -70 476 -47 53 -108 71
-228 70 -50 -1 -103 -4 -117 -6z m231 -408 c0 -20 -9 -53 -19 -73 -45 -88
-192 -113 -221 -37 -13 34 -1 64 34 82 26 14 174 60 199 62 4 1 7 -15 7 -34z"/>
<path d="M4550 2401 c-39 -12 -84 -38 -119 -67 l-31 -26 0 46 0 46 -90 0 -90
0 0 -340 0 -340 94 0 95 0 3 208 c3 232 8 253 69 284 20 10 60 21 88 25 l51 6
0 83 c0 92 -3 95 -70 75z"/>
<path d="M5050 2395 c-19 -9 -49 -27 -67 -41 l-33 -25 0 35 0 36 -90 0 -90 0
0 -340 0 -340 89 0 89 0 4 218 c4 241 10 265 71 302 37 23 109 26 147 7 53
-26 60 -61 60 -304 l0 -223 96 0 95 0 -3 268 c-3 264 -3 268 -28 312 -14 24
-44 58 -68 74 -39 28 -51 31 -140 33 -72 3 -106 -1 -132 -12z"/>
<path d="M790 2386 c0 -8 8 -22 18 -32 16 -17 17 -17 20 0 4 18 -14 46 -29 46
-5 0 -9 -6 -9 -14z"/>
<path d="M1520 2060 l0 -340 95 0 95 0 0 340 0 340 -95 0 -95 0 0 -340z"/>
<path d="M5994 2375 c-3 -14 -10 -25 -15 -25 -13 0 -41 -48 -35 -59 9 -15 34
-2 41 20 4 10 12 19 20 19 14 0 25 21 25 51 0 28 -29 23 -36 -6z"/>
<path d="M1006 2372 c-8 -13 18 -57 35 -60 19 -4 32 23 24 49 -6 19 -49 27
-59 11z"/>
<path d="M6230 2352 c0 -16 -6 -35 -14 -41 -8 -7 -17 -23 -20 -36 -4 -14 -10
-25 -15 -25 -5 0 -24 -16 -42 -35 -18 -18 -44 -35 -58 -37 -18 -2 -27 -10 -29
-26 -3 -23 -2 -23 45 -16 50 7 73 19 73 38 0 6 4 17 9 25 8 13 12 13 26 1 14
-12 18 -12 26 1 5 8 9 25 9 37 0 13 8 38 18 54 13 23 14 32 5 35 -7 3 -13 13
-13 23 0 10 -4 22 -10 25 -6 4 -10 -6 -10 -23z"/>
<path d="M850 2341 c0 -18 62 -102 81 -109 19 -7 7 25 -27 75 -38 56 -54 66
-54 34z"/>
<path d="M1200 2331 c0 -22 16 -36 24 -22 8 12 -3 41 -15 41 -5 0 -9 -9 -9
-19z"/>
<path d="M687 2292 c-26 -29 -7 -192 22 -192 11 0 25 58 22 94 -2 26 0 28 23
22 37 -9 39 7 6 53 -33 45 -49 50 -73 23z"/>
<path d="M1185 2290 c-10 -17 22 -47 35 -34 7 7 4 16 -9 28 -14 12 -21 14 -26
6z"/>
<path d="M6012 2257 c-13 -16 11 -57 32 -57 21 0 26 25 10 49 -17 24 -27 26
-42 8z"/>
<path d="M805 2250 c-10 -16 4 -49 25 -60 26 -14 34 3 18 37 -14 30 -33 40
-43 23z"/>
<path d="M5655 2220 c-8 -14 3 -30 21 -30 8 0 14 9 14 20 0 21 -24 28 -35 10z"/>
<path d="M5720 2191 c-12 -24 -13 -41 -1 -41 15 0 41 30 41 46 0 21 -28 17
-40 -5z"/>
<path d="M5943 2195 c-3 -9 -3 -18 0 -22 10 -10 37 6 37 22 0 20 -29 20 -37 0z"/>
<path d="M5527 2193 c-11 -10 -8 -41 3 -48 15 -9 40 14 40 36 0 19 -29 27 -43
12z"/>
<path d="M6215 2150 c-9 -18 -23 -30 -35 -30 -17 0 -40 -26 -40 -46 0 -3 12
-4 26 -1 24 4 26 2 22 -24 -3 -16 -2 -29 2 -29 11 0 71 140 65 150 -11 17 -24
11 -40 -20z"/>
<path d="M945 2150 c-5 -16 -15 -20 -51 -20 -48 0 -50 -3 -29 -40 8 -14 14
-50 15 -81 0 -59 25 -109 48 -95 15 9 4 106 -14 127 -19 22 -17 39 4 39 25 0
82 57 76 75 -9 22 -42 18 -49 -5z"/>
<path d="M783 2143 c-19 -7 -16 -37 8 -67 27 -34 39 -33 39 3 0 33 -29 71 -47
64z"/>
<path d="M5850 2100 c0 -25 4 -30 25 -30 25 0 51 32 40 50 -3 6 -19 10 -36 10
-26 0 -29 -3 -29 -30z"/>
<path d="M1427 2094 c-10 -10 12 -44 29 -44 10 0 14 8 12 22 -3 22 -27 35 -41
22z"/>
<path d="M5920 2071 c-13 -24 -13 -51 -1 -51 12 0 41 40 41 57 0 20 -28 15
-40 -6z"/>
<path d="M1100 2074 c0 -18 24 -44 40 -44 23 0 25 8 6 33 -12 16 -46 24 -46
11z"/>
<path d="M6093 2060 c-3 -11 -10 -20 -17 -19 -36 4 -66 -20 -66 -55 0 -22 4
-23 51 -21 45 3 51 0 59 -21 13 -32 25 -30 40 6 17 40 7 60 -30 60 -33 0 -38
11 -15 30 8 7 15 19 15 26 0 22 -31 16 -37 -6z"/>
<path d="M5963 2054 c-3 -8 -1 -20 5 -26 16 -16 42 -2 42 22 0 24 -38 28 -47
4z"/>
<path d="M1057 2045 c-8 -20 3 -47 17 -42 6 2 11 14 11 27 0 27 -20 38 -28 15z"/>
<path d="M1334 2045 c-7 -18 12 -45 32 -45 15 0 18 18 8 44 -8 20 -33 21 -40
1z"/>
<path d="M784 2003 l-21 -28 33 -59 c18 -33 40 -63 48 -68 16 -9 56 6 56 20
-1 13 -25 39 -48 51 -18 9 -22 19 -20 47 1 20 -4 40 -13 49 -13 14 -17 12 -35
-12z"/>
<path d="M1010 2001 c0 -22 25 -39 38 -27 8 8 -10 38 -26 44 -7 2 -12 -6 -12
-17z"/>
<path d="M5662 2008 c-17 -17 -15 -38 3 -38 16 0 38 34 28 44 -9 9 -18 7 -31
-6z"/>
<path d="M5797 2003 c-4 -3 -7 -15 -7 -25 0 -22 26 -24 34 -2 10 25 -10 45
-27 27z"/>
<path d="M5685 1957 c-10 -8 -15 -19 -12 -25 11 -16 47 -2 47 19 0 22 -9 24
-35 6z"/>
<path d="M5904 1955 c-3 -8 -3 -19 1 -25 9 -14 35 6 35 26 0 19 -29 18 -36 -1z"/>
<path d="M1366 1951 c-9 -14 43 -71 65 -71 26 0 24 26 -6 55 -25 26 -49 32
-59 16z"/>
<path d="M5480 1939 c0 -25 33 -22 38 4 2 12 -3 17 -17 17 -15 0 -21 -6 -21
-21z"/>
<path d="M1240 1930 c0 -11 7 -23 15 -27 21 -8 28 1 20 26 -8 27 -35 27 -35 1z"/>
<path d="M970 1925 c0 -8 7 -15 15 -15 8 0 15 7 15 15 0 8 -7 15 -15 15 -8 0
-15 -7 -15 -15z"/>
<path d="M1138 1926 c-22 -16 -23 -55 -2 -63 20 -8 32 6 40 45 7 35 -7 42 -38
18z"/>
<path d="M6044 1896 c-9 -37 4 -51 27 -30 25 23 25 54 -1 54 -12 0 -22 -9 -26
-24z"/>
<path d="M5765 1889 c-4 -6 3 -13 15 -16 14 -4 20 -11 16 -22 -19 -61 -19 -61
3 -61 16 0 23 8 28 30 3 17 10 33 14 36 5 3 9 14 9 25 0 16 -7 19 -39 19 -22
0 -43 -5 -46 -11z"/>
<path d="M5901 1881 c-15 -28 -14 -61 3 -61 20 0 38 26 34 51 -4 30 -24 35
-37 10z"/>
<path d="M922 1878 c-16 -16 -15 -33 4 -52 21 -21 31 -20 44 4 23 42 -16 80
-48 48z"/>
<path d="M5620 1880 c0 -5 5 -10 10 -10 6 0 10 5 10 10 0 6 -4 10 -10 10 -5 0
-10 -4 -10 -10z"/>
<path d="M5703 1864 c-3 -8 -1 -20 6 -27 14 -14 47 15 37 32 -10 16 -36 13
-43 -5z"/>
<path d="M1040 1851 c-13 -25 11 -81 35 -81 21 0 28 36 13 67 -17 34 -34 39
-48 14z"/>
<path d="M5954 1855 c-9 -23 3 -45 25 -45 25 0 32 11 24 38 -6 25 -41 30 -49
7z"/>
<path d="M5523 1834 c-24 -14 -43 -30 -43 -35 0 -18 31 -22 48 -6 9 8 27 18
40 21 23 8 32 46 10 46 -7 -1 -32 -12 -55 -26z"/>
<path d="M1385 1840 c-7 -12 12 -40 27 -40 13 0 6 43 -9 47 -6 2 -14 -1 -18
-7z"/>
<path d="M6020 1831 c0 -6 -13 -24 -30 -41 -27 -27 -40 -60 -24 -60 3 0 26 12
50 26 38 22 45 31 42 53 -3 24 -38 45 -38 22z"/>
<path d="M5889 1778 c-18 -24 -23 -45 -22 -77 2 -65 -48 -154 -77 -136 -5 3
-10 19 -10 35 0 55 -67 84 -91 39 -9 -19 -6 -25 25 -51 41 -34 46 -63 16 -101
-41 -52 -14 -104 35 -66 22 18 26 28 23 56 -4 31 0 36 44 63 39 25 48 35 48
59 0 16 7 34 15 41 8 7 15 27 15 44 0 17 5 48 11 70 15 54 -2 67 -32 24z"/>
<path d="M870 1793 c0 -17 40 -73 64 -88 14 -9 33 -14 43 -11 13 4 25 -4 41
-28 20 -29 21 -37 11 -60 -15 -33 3 -82 26 -72 8 3 21 8 29 12 9 3 15 -5 19
-25 4 -19 16 -34 34 -43 17 -8 29 -23 31 -38 l4 -25 -24 21 c-68 61 -56 29 21
-56 l50 -55 1 47 c0 31 -6 52 -17 64 -10 10 -16 29 -15 49 2 21 -4 38 -18 50
-11 10 -20 30 -20 45 0 14 -7 35 -15 46 -8 10 -15 29 -15 41 0 12 -5 25 -10
28 -7 5 -8 11 -1 19 5 6 6 18 2 25 -7 10 -12 6 -22 -15 -20 -40 -38 -36 -69
15 -31 53 -56 68 -46 27 6 -25 5 -27 -16 -21 -13 4 -32 15 -43 25 -28 24 -45
33 -45 23z m230 -181 c0 -12 -3 -12 -15 -2 -8 7 -15 22 -15 34 1 21 1 21 15 2
8 -11 15 -26 15 -34z"/>
<path d="M1245 1766 c-18 -28 -10 -56 16 -56 27 0 46 44 29 65 -17 21 -27 19
-45 -9z"/>
<path d="M1146 1745 c-7 -18 30 -58 47 -52 17 5 21 35 7 52 -16 19 -46 19 -54
0z"/>
<path d="M5620 1734 c0 -9 7 -14 17 -12 25 5 28 28 4 28 -12 0 -21 -6 -21 -16z"/>
<path d="M5751 1731 c-8 -5 -20 -7 -27 -4 -17 6 -38 -33 -23 -43 7 -4 17 0 24
9 11 15 13 15 28 -1 15 -15 19 -15 32 -1 29 29 0 61 -34 40z"/>
<path d="M1295 1698 c4 -13 9 -37 12 -55 6 -38 38 -72 54 -56 8 8 6 20 -5 41
-9 17 -16 40 -16 51 0 11 -9 25 -19 31 -29 15 -34 12 -26 -12z"/>
<path d="M5980 1695 c-7 -8 -18 -15 -24 -15 -12 0 -46 -60 -46 -80 0 -23 22
-7 60 43 22 30 40 57 40 60 0 12 -17 7 -30 -8z"/>
<path d="M5591 1681 c-15 -10 -8 -41 8 -41 13 0 32 35 24 44 -8 8 -15 7 -32
-3z"/>
<path d="M1430 1662 c0 -15 38 -44 49 -37 17 10 -6 45 -29 45 -11 0 -20 -4
-20 -8z"/>
<path d="M5483 1635 c-3 -9 -3 -19 1 -22 8 -9 37 18 30 28 -8 14 -24 11 -31
-6z"/>
<path d="M5642 1638 c-14 -14 -16 -38 -4 -38 12 0 32 23 32 37 0 16 -12 17
-28 1z"/>
<path d="M5320 1619 c0 -24 23 -21 28 4 2 10 -3 17 -12 17 -10 0 -16 -9 -16
-21z"/>
<path d="M1176 1622 c-7 -12 23 -52 39 -52 24 0 26 19 5 40 -21 21 -36 25 -44
12z"/>
<path d="M5531 1616 c-8 -9 -11 -19 -7 -23 9 -9 29 13 24 27 -2 8 -8 7 -17 -4z"/>
<path d="M1604 1555 c-9 -23 3 -45 26 -45 25 0 28 45 4 54 -22 8 -24 8 -30 -9z"/>
<path d="M1330 1546 c0 -7 12 -25 26 -40 15 -14 33 -26 40 -26 23 0 16 29 -12
55 -30 28 -54 32 -54 11z"/>
<path d="M1265 1539 c-13 -20 4 -59 26 -59 25 0 34 22 19 49 -12 23 -35 28
-45 10z"/>
<path d="M5382 1518 c-20 -24 -24 -64 -8 -77 12 -10 17 -8 30 11 21 34 24 72
5 76 -9 1 -21 -3 -27 -10z"/>
<path d="M5827 1518 c-14 -7 -15 -13 -6 -29 10 -20 11 -20 30 -3 10 9 19 20
19 24 0 13 -26 18 -43 8z"/>
<path d="M1516 1511 c-3 -4 -1 -23 4 -41 16 -54 50 -63 50 -14 0 47 -36 84
-54 55z"/>
<path d="M5085 1509 c-4 -6 -5 -13 -2 -16 7 -7 27 6 27 18 0 12 -17 12 -25 -2z"/>
<path d="M5621 1506 c-19 -23 -10 -60 16 -64 27 -4 63 14 63 32 0 7 -12 19
-27 27 -16 7 -31 15 -34 17 -3 1 -12 -4 -18 -12z"/>
<path d="M5163 1493 c-17 -6 -16 -30 0 -36 20 -8 41 9 34 27 -7 16 -13 18 -34
9z"/>
<path d="M5545 1470 c-14 -16 -16 -23 -6 -33 16 -16 45 3 49 32 4 27 -19 28
-43 1z"/>
<path d="M1246 1451 c-4 -5 -2 -12 3 -15 5 -4 12 -2 15 3 4 5 2 12 -3 15 -5 4
-12 2 -15 -3z"/>
<path d="M4867 1443 c-4 -3 -7 -12 -7 -20 0 -17 26 -17 33 1 8 21 -11 35 -26
19z"/>
<path d="M1302 1414 c4 -20 34 -41 44 -31 8 8 -24 47 -38 47 -5 0 -8 -7 -6
-16z"/>
<path d="M1390 1414 c0 -9 8 -23 18 -31 28 -22 110 -63 127 -63 9 0 27 -12 40
-27 18 -22 26 -25 36 -16 15 15 -4 43 -28 43 -9 0 -31 14 -50 30 -18 17 -42
30 -52 30 -9 0 -28 11 -41 25 -27 29 -50 33 -50 9z"/>
<path d="M1944 1396 c-7 -19 3 -36 22 -36 10 0 14 8 12 22 -4 26 -26 36 -34
14z"/>
<path d="M4937 1383 c-14 -13 -6 -33 12 -33 16 0 31 18 31 36 0 7 -36 5 -43
-3z"/>
<path d="M5210 1366 c0 -14 5 -28 10 -31 6 -4 10 -12 9 -18 -4 -31 2 -38 28
-35 35 4 42 33 14 59 -12 11 -21 26 -21 34 0 8 -9 15 -20 15 -15 0 -20 -7 -20
-24z"/>
<path d="M1263 1364 c-14 -36 39 -94 58 -63 14 23 10 66 -7 73 -26 10 -44 7
-51 -10z"/>
<path d="M5441 1358 c-45 -23 -71 -51 -59 -63 3 -4 17 -1 30 7 12 7 43 17 68
23 35 8 45 15 45 30 0 29 -32 30 -84 3z"/>
<path d="M5696 1345 c-9 -14 -26 -25 -39 -25 -19 -1 -77 -41 -77 -54 0 -2 15
-4 33 -4 24 0 43 11 80 46 26 26 47 50 47 54 0 18 -29 6 -44 -17z"/>
<path d="M1900 1351 c0 -22 13 -41 29 -41 9 0 22 -5 29 -12 6 -6 15 -9 19 -5
9 9 -47 67 -64 67 -7 0 -13 -4 -13 -9z"/>
<path d="M5596 1344 c-9 -9 -15 -21 -13 -27 6 -20 26 -18 37 3 16 30 -1 47
-24 24z"/>
<path d="M1393 1324 c-4 -11 1 -22 12 -31 34 -24 59 2 30 31 -21 20 -34 20
-42 0z"/>
<path d="M2215 1330 c-4 -7 -3 -16 3 -22 14 -14 45 -2 40 15 -6 16 -34 21 -43
7z"/>
<path d="M5036 1323 c-9 -24 9 -39 29 -23 8 7 15 19 15 26 0 20 -37 17 -44 -3z"/>
<path d="M1740 1317 c0 -19 21 -37 44 -37 18 0 18 1 -4 25 -26 28 -40 32 -40
12z"/>
<path d="M5287 1283 c-4 -3 -7 -15 -7 -25 0 -28 34 -19 38 10 3 21 -16 31 -31
15z"/>
<path d="M1352 1243 c3 -43 32 -58 43 -24 9 31 -3 61 -26 61 -17 0 -20 -6 -17
-37z"/>
<path d="M1499 1264 c-8 -10 -10 -20 -3 -28 5 -7 21 -32 37 -55 17 -26 35 -41
48 -41 l21 0 -21 34 c-12 18 -21 42 -21 52 -1 22 -23 54 -37 54 -6 0 -16 -7
-24 -16z"/>
<path d="M5477 1239 l-31 -32 31 -26 31 -26 -24 -29 c-36 -41 -20 -46 21 -6
19 19 31 36 25 40 -5 3 -5 11 0 20 6 8 10 32 10 53 0 47 -20 49 -63 6z"/>
<path d="M1697 1223 c-14 -13 -7 -33 11 -33 26 0 34 11 21 27 -13 14 -22 16
-32 6z"/>
<path d="M5136 1214 c-3 -9 -3 -20 0 -25 8 -13 34 9 34 27 0 19 -26 18 -34 -2z"/>
<path d="M1450 1200 c0 -15 -9 -22 -30 -26 -16 -4 -30 -10 -30 -15 0 -12 42
-39 61 -39 9 0 42 -11 74 -26 32 -14 62 -21 66 -17 15 15 -19 50 -55 57 -36 7
-59 27 -38 34 19 6 14 30 -7 42 -29 15 -41 12 -41 -10z"/>
<path d="M1785 1210 c-6 -9 21 -40 35 -40 13 0 20 15 12 26 -10 15 -41 24 -47
14z"/>
<path d="M4707 1203 c-4 -3 -7 -15 -7 -25 0 -14 6 -19 23 -16 29 4 38 48 9 48
-10 0 -22 -3 -25 -7z"/>
<path d="M4863 1203 c-7 -2 -13 -11 -13 -20 0 -21 44 -13 48 10 3 17 -10 21
-35 10z"/>
<path d="M5377 1203 c-14 -13 -7 -33 11 -33 19 0 42 18 42 32 0 10 -44 11 -53
1z"/>
<path d="M4603 1193 c-21 -8 -15 -33 7 -33 13 0 20 7 20 20 0 20 -5 23 -27 13z"/>
<path d="M5249 1151 c-16 -16 -29 -34 -29 -40 0 -20 22 -23 43 -4 12 11 34 24
50 31 38 16 36 42 -4 42 -20 0 -40 -10 -60 -29z"/>
<path d="M1614 1155 c-9 -21 25 -57 50 -53 16 2 21 10 21 33 0 27 -4 30 -33
33 -22 2 -34 -2 -38 -13z"/>
<path d="M1897 1154 c-9 -10 12 -34 30 -34 19 0 12 34 -8 38 -8 1 -18 0 -22
-4z"/>
<path d="M4893 1124 c-14 -37 41 -71 66 -40 9 11 10 20 1 35 -13 25 -58 28
-67 5z"/>
<path d="M5080 1123 c-19 -7 -60 -44 -60 -54 0 -4 26 -5 58 -2 56 6 57 6 40
-14 -25 -28 -22 -43 7 -43 14 0 28 -7 31 -15 8 -19 30 -19 82 -1 39 14 40 14
46 -10 8 -30 16 -30 50 -3 24 19 26 24 14 36 -14 13 -79 18 -138 11 -21 -2
-26 2 -28 25 -2 15 -9 27 -18 27 -8 0 -14 9 -14 19 0 26 -33 38 -70 24z"/>
<path d="M5380 1102 c-23 -18 -19 -52 6 -52 17 0 48 46 39 60 -9 14 -20 13
-45 -8z"/>
<path d="M1710 1091 c0 -21 26 -36 36 -20 9 15 -3 39 -21 39 -8 0 -15 -9 -15
-19z"/>
<path d="M2732 1098 c-13 -13 2 -38 24 -38 20 0 27 19 14 35 -15 18 -22 19
-38 3z"/>
<path d="M4207 1093 c-13 -12 -7 -23 13 -23 11 0 20 7 20 15 0 15 -21 21 -33
8z"/>
<path d="M1614 1079 c-7 -12 32 -56 42 -47 9 10 -5 46 -21 52 -8 3 -17 0 -21
-5z"/>
<path d="M1490 1070 c0 -13 28 -25 38 -16 3 4 0 11 -8 16 -20 13 -30 12 -30 0z"/>
<path d="M4550 1070 c-13 -8 -12 -10 3 -10 9 0 17 5 17 10 0 12 -1 12 -20 0z"/>
<path d="M4340 1060 c0 -5 9 -10 20 -10 11 0 20 5 20 10 0 6 -9 10 -20 10 -11
0 -20 -4 -20 -10z"/>
<path d="M4407 1064 c-10 -11 3 -24 24 -24 10 0 19 7 19 15 0 15 -31 21 -43 9z"/>
<path d="M4750 1045 c-9 -11 -10 -19 -3 -26 14 -14 53 6 53 26 0 20 -34 19
-50 0z"/>
<path d="M1834 1035 c-10 -26 4 -45 34 -45 16 0 45 -3 63 -6 43 -8 31 6 -34
40 -56 30 -56 30 -63 11z"/>
<path d="M1590 989 c33 -29 51 -38 67 -34 15 3 40 -5 71 -25 58 -35 62 -36 62
-11 0 36 -12 50 -48 57 -21 4 -48 15 -62 24 -14 10 -50 20 -80 22 l-55 6 45
-39z"/>
<path d="M4953 1020 c-13 -5 -23 -16 -23 -25 0 -12 12 -15 55 -15 47 0 55 3
55 19 0 30 -41 39 -87 21z"/>
<path d="M2000 1010 c-12 -7 -12 -12 4 -29 11 -12 16 -29 13 -40 -5 -21 27
-60 40 -48 3 4 1 24 -5 44 -6 21 -13 47 -14 57 -4 23 -18 29 -38 16z"/>
<path d="M4587 1007 c-8 -20 9 -41 27 -34 23 9 21 47 -3 47 -10 0 -21 -6 -24
-13z"/>
<path d="M4687 1003 c-12 -22 -17 -83 -7 -83 21 0 70 58 64 74 -6 16 -49 22
-57 9z"/>
<path d="M2132 991 c-8 -4 -12 -19 -10 -32 4 -33 43 -38 59 -8 10 19 9 25 -7
36 -21 15 -24 16 -42 4z"/>
<path d="M3155 991 c-8 -15 3 -31 21 -31 9 0 14 7 12 17 -4 20 -24 28 -33 14z"/>
<path d="M4000 965 c-11 -13 -8 -15 14 -15 16 0 26 5 26 15 0 8 -6 15 -14 15
-7 0 -19 -7 -26 -15z"/>
<path d="M2404 945 c-10 -25 4 -45 30 -45 35 0 43 20 16 42 -27 22 -39 23 -46
3z"/>
<path d="M4204 946 c-14 -11 -16 -18 -8 -26 15 -15 44 -2 44 21 0 23 -9 24
-36 5z"/>
<path d="M5031 946 c-20 -24 -9 -51 19 -51 21 0 25 5 25 30 0 34 -24 45 -44
21z"/>
<path d="M5162 944 c-12 -8 -22 -22 -22 -30 0 -21 44 -17 66 7 16 17 16 22 4
29 -20 13 -22 12 -48 -6z"/>
<path d="M1815 930 c-9 -15 4 -30 26 -30 23 0 26 25 3 34 -21 8 -22 8 -29 -4z"/>
<path d="M4446 924 c-13 -12 -14 -20 -6 -28 13 -13 45 4 45 24 0 21 -21 23
-39 4z"/>
<path d="M4775 929 c-4 -5 0 -18 9 -28 9 -10 16 -25 16 -35 0 -9 7 -19 15 -22
10 -4 13 -14 9 -30 -5 -18 -2 -24 10 -24 9 0 16 -7 16 -15 0 -9 9 -15 25 -15
30 0 34 26 5 35 -11 4 -18 10 -15 15 3 5 1 11 -5 15 -17 11 -1 25 29 25 30 0
51 16 51 38 0 11 -9 13 -35 9 -26 -4 -43 0 -70 19 -40 27 -51 29 -60 13z"/>
<path d="M2785 910 c-8 -13 3 -30 20 -30 23 0 27 18 6 30 -13 7 -22 7 -26 0z"/>
<path d="M3530 896 c0 -10 9 -16 21 -16 24 0 21 23 -4 28 -10 2 -17 -3 -17
-12z"/>
<path d="M1915 890 c-5 -8 -10 -28 -11 -43 -1 -23 4 -30 33 -42 20 -8 37 -15
39 -15 11 0 2 29 -12 41 -8 7 -21 26 -28 43 -10 24 -14 27 -21 16z"/>
<path d="M3093 893 c-23 -9 -15 -35 10 -31 12 2 22 9 22 17 0 16 -14 22 -32
14z"/>
<path d="M2202 873 c5 -26 38 -29 38 -4 0 15 -6 21 -21 21 -14 0 -19 -5 -17
-17z"/>
<path d="M3854 879 c-3 -6 -2 -15 4 -21 11 -11 52 6 52 22 0 14 -47 13 -56 -1z"/>
<path d="M3573 873 c-7 -3 -13 -11 -13 -20 0 -17 41 -14 47 3 4 13 -16 23 -34
17z"/>
<path d="M4591 866 c-8 -10 -8 -21 -1 -41 12 -30 35 -29 35 3 0 11 4 24 8 28
13 13 7 24 -12 24 -10 0 -24 -6 -30 -14z"/>
<path d="M4966 861 c-11 -12 -17 -23 -15 -25 8 -8 154 -10 177 -2 12 4 22 14
22 21 0 11 -15 14 -57 14 -32 0 -69 2 -83 6 -19 5 -31 1 -44 -14z"/>
<path d="M1790 855 c0 -20 52 -45 78 -38 29 7 28 17 -3 37 -31 20 -75 21 -75
1z"/>
<path d="M2022 861 c-22 -14 -10 -46 19 -49 29 -3 54 20 45 43 -6 16 -43 20
-64 6z"/>
<path d="M3491 861 c-21 -14 -5 -43 21 -39 15 2 23 10 23 23 0 22 -22 30 -44
16z"/>
<path d="M2450 850 c0 -5 9 -10 21 -10 11 0 17 5 14 10 -3 6 -13 10 -21 10 -8
0 -14 -4 -14 -10z"/>
<path d="M3780 850 c-11 -7 -12 -12 -3 -21 15 -15 48 -7 48 11 0 18 -24 24
-45 10z"/>
<path d="M4103 845 c-3 -9 -3 -18 0 -21 10 -10 47 7 47 22 0 19 -39 18 -47 -1z"/>
<path d="M4393 843 c-20 -7 -15 -33 5 -33 19 0 42 18 42 32 0 9 -27 9 -47 1z"/>
<path d="M2265 820 c18 -20 55 -28 55 -12 0 16 -24 32 -49 32 -23 0 -24 -1 -6
-20z"/>
<path d="M2604 806 c-7 -19 3 -36 22 -36 10 0 14 8 12 22 -4 26 -26 36 -34 14z"/>
<path d="M4704 805 c-3 -8 -3 -18 0 -23 3 -4 -11 -14 -30 -21 -18 -7 -34 -16
-34 -20 0 -5 -12 -20 -26 -34 -16 -17 -24 -33 -20 -43 9 -25 40 -12 55 24 8
17 21 32 28 32 21 0 15 -18 -19 -61 -30 -37 -34 -39 -89 -39 -32 0 -61 5 -64
10 -3 6 -21 10 -39 10 -18 0 -41 7 -52 15 -25 19 -63 19 -70 0 -10 -26 36 -55
81 -52 35 2 40 -1 43 -20 2 -13 5 -23 7 -23 11 0 164 21 182 25 15 4 29 21 44
54 20 48 23 50 70 56 34 5 54 3 65 -5 25 -21 63 2 57 34 -5 26 -26 33 -51 17
-13 -8 -95 8 -108 21 -3 4 1 14 10 23 9 9 14 21 11 26 -9 14 -45 11 -51 -6z"/>
<path d="M2176 802 c-9 -14 21 -35 40 -28 8 3 14 12 12 19 -6 15 -44 22 -52 9z"/>
<path d="M2434 798 c-8 -13 30 -48 52 -48 22 0 17 27 -8 44 -27 19 -35 20 -44
4z"/>
<path d="M4121 801 c-18 -12 -5 -31 20 -31 14 0 19 6 17 17 -4 20 -18 26 -37
14z"/>
<path d="M4246 784 c-9 -8 -16 -19 -16 -24 0 -13 30 -40 44 -40 23 0 39 28 32
55 -7 29 -36 33 -60 9z"/>
<path d="M4622 788 c-20 -20 -14 -30 15 -26 32 4 46 38 16 38 -11 0 -24 -5
-31 -12z"/>
<path d="M1900 782 c0 -10 41 -35 47 -28 9 8 -17 36 -33 36 -8 0 -14 -3 -14
-8z"/>
<path d="M2730 775 c-16 -20 -4 -35 29 -35 36 0 62 27 40 41 -21 13 -55 11
-69 -6z"/>
<path d="M4451 771 c-16 -30 -3 -53 28 -49 22 2 26 8 26 33 0 23 -5 31 -22 33
-14 2 -26 -4 -32 -17z"/>
<path d="M2350 766 c0 -10 9 -16 21 -16 24 0 21 23 -4 28 -10 2 -17 -3 -17
-12z"/>
<path d="M4922 769 c-29 -11 -26 -43 4 -47 11 -2 33 7 49 19 26 21 26 23 9 30
-25 10 -34 10 -62 -2z"/>
<path d="M2117 764 c-16 -16 -5 -33 33 -48 22 -9 45 -16 50 -16 12 0 14 47 2
54 -15 9 -78 17 -85 10z"/>
<path d="M2892 758 c5 -15 37 -18 41 -3 1 6 -9 12 -22 13 -16 3 -22 -1 -19
-10z"/>
<path d="M3222 763 c-18 -7 4 -33 29 -33 22 0 24 11 7 28 -13 13 -16 13 -36 5z"/>
<path d="M3584 759 c-9 -15 12 -33 30 -26 9 4 16 13 16 22 0 17 -35 21 -46 4z"/>
<path d="M3414 746 c-18 -14 -18 -15 -1 -22 22 -8 46 11 31 26 -7 7 -17 5 -30
-4z"/>
<path d="M3880 734 c0 -10 7 -14 22 -12 32 5 35 28 4 28 -17 0 -26 -5 -26 -16z"/>
<path d="M2024 728 c-8 -13 30 -48 52 -48 17 0 17 2 2 35 -12 26 -42 34 -54
13z"/>
<path d="M3083 728 c-33 -16 -28 -25 18 -33 31 -5 45 -3 56 8 32 32 -23 50
-74 25z"/>
<path d="M4557 734 c-15 -15 -6 -24 24 -24 20 0 29 4 27 13 -5 14 -40 21 -51
11z"/>
<path d="M3763 718 c2 -7 10 -13 17 -13 7 0 15 6 18 13 2 7 -5 12 -18 12 -13
0 -20 -5 -17 -12z"/>
<path d="M2947 714 c-10 -11 3 -24 24 -24 10 0 19 7 19 15 0 15 -31 21 -43 9z"/>
<path d="M3510 700 c0 -5 7 -10 15 -10 8 0 15 5 15 10 0 6 -7 10 -15 10 -8 0
-15 -4 -15 -10z"/>
<path d="M2290 682 c0 -16 10 -20 67 -25 73 -7 82 -4 67 21 -8 12 -28 18 -73
20 -54 3 -61 1 -61 -16z"/>
<path d="M2550 686 c0 -19 34 -28 91 -24 31 2 44 7 44 18 0 12 -15 16 -67 18
-56 2 -68 0 -68 -12z"/>
<path d="M3985 689 c-20 -31 103 -57 133 -27 21 21 13 29 -30 28 -24 -1 -55 1
-69 5 -17 4 -29 2 -34 -6z"/>
<path d="M2455 681 c-7 -12 22 -41 40 -41 21 0 28 19 15 35 -14 17 -46 20 -55
6z"/>
<path d="M3817 678 c-11 -9 -14 -18 -8 -26 12 -20 46 -10 46 12 0 24 -16 30
-38 14z"/>
<path d="M2777 674 c-15 -15 -6 -24 24 -24 20 0 29 4 27 13 -5 14 -40 21 -51
11z"/>
<path d="M2986 671 c-9 -15 23 -36 36 -23 5 5 7 15 4 21 -9 13 -33 14 -40 2z"/>
<path d="M2200 656 c0 -18 39 -31 52 -18 15 15 0 32 -28 32 -14 0 -24 -6 -24
-14z"/>
<path d="M3334 655 c-8 -21 4 -35 32 -35 17 0 24 6 24 19 0 29 -46 43 -56 16z"/>
<path d="M2135 650 c3 -5 10 -10 16 -10 5 0 9 5 9 10 0 6 -7 10 -16 10 -8 0
-12 -4 -9 -10z"/>
<path d="M2859 644 c-18 -22 -1 -46 40 -58 44 -13 48 -2 17 39 -30 39 -38 42
-57 19z"/>
<path d="M3690 629 c0 -15 5 -20 22 -17 34 5 37 38 4 38 -20 0 -26 -5 -26 -21z"/>
<path d="M4152 633 c2 -10 12 -18 23 -18 11 0 21 8 23 18 3 13 -3 17 -23 17
-20 0 -26 -4 -23 -17z"/>
<path d="M4222 609 c-23 -17 -42 -34 -42 -38 0 -17 14 -19 41 -6 21 11 35 12
54 5 27 -10 45 -6 45 10 0 8 -47 60 -53 60 -2 0 -22 -14 -45 -31z"/>
<path d="M3846 621 c-4 -7 -5 -15 -2 -18 9 -9 19 4 14 18 -4 11 -6 11 -12 0z"/>
<path d="M2230 612 c0 -9 44 -32 60 -32 16 0 11 27 -6 34 -23 9 -54 7 -54 -2z"/>
<path d="M2326 612 c-3 -5 8 -16 25 -26 16 -9 29 -21 29 -27 0 -13 88 -54 97
-45 4 4 3 10 -3 14 -5 4 -17 19 -27 35 -10 15 -24 27 -31 27 -7 0 -19 7 -26
15 -13 16 -55 20 -64 7z"/>
<path d="M2450 605 c0 -21 44 -47 75 -43 37 4 35 20 -5 40 -44 21 -70 22 -70
3z"/>
<path d="M3212 603 c-18 -7 4 -33 29 -33 24 0 35 20 18 31 -15 10 -27 10 -47
2z"/>
<path d="M2618 593 c-50 -4 -68 -24 -46 -50 8 -10 21 -13 42 -8 17 4 51 8 76
9 33 2 44 6 42 17 -6 24 -24 39 -46 37 -11 -1 -42 -3 -68 -5z"/>
<path d="M3461 586 c-9 -10 -8 -16 3 -25 22 -18 51 -9 54 17 3 18 -1 22 -21
22 -14 0 -30 -6 -36 -14z"/>
<path d="M3891 591 c-17 -11 -6 -31 18 -31 25 0 33 11 20 27 -13 15 -19 16
-38 4z"/>
<path d="M2820 581 c0 -13 37 -24 50 -16 6 4 8 11 5 16 -8 12 -55 12 -55 0z"/>
<path d="M3586 582 c-9 -14 21 -35 40 -28 8 3 14 12 12 19 -6 15 -44 22 -52 9z"/>
<path d="M2315 570 c3 -5 10 -10 16 -10 5 0 9 5 9 10 0 6 -7 10 -16 10 -8 0
-12 -4 -9 -10z"/>
<path d="M3125 547 c8 -40 -13 -67 -50 -67 -13 0 -27 -4 -30 -10 -3 -5 -19
-10 -34 -10 -35 0 -55 -22 -46 -50 9 -29 46 -25 80 10 32 33 74 40 99 15 8 -8
19 -15 24 -15 5 0 17 -9 26 -19 10 -11 31 -23 47 -26 16 -4 43 -13 60 -22 26
-13 35 -13 74 -1 36 12 47 12 67 2 27 -15 84 -18 92 -5 7 11 -33 38 -65 43
-14 2 -25 11 -27 23 -6 28 -21 45 -42 45 -24 0 -33 -25 -14 -40 23 -20 18 -43
-8 -36 -13 3 -38 6 -56 6 -25 0 -41 8 -60 30 -17 20 -36 30 -54 30 -32 0 -44
15 -28 35 13 16 6 60 -12 82 -6 7 -19 13 -30 13 -16 0 -18 -5 -13 -33z"/>
<path d="M4000 561 c-13 -25 -4 -48 23 -55 25 -6 23 -9 31 37 6 35 5 37 -18
37 -15 0 -30 -8 -36 -19z"/>
<path d="M4320 530 c-18 -22 -40 -40 -51 -40 -11 0 -32 -6 -47 -14 -43 -21
-99 -27 -113 -10 -15 19 -58 18 -66 -2 -3 -8 4 -25 16 -38 19 -21 26 -22 64
-14 84 19 183 50 218 69 21 10 43 17 51 14 8 -3 25 -1 39 4 l24 10 -22 7 c-13
3 -23 12 -23 20 0 13 -30 34 -49 34 -5 0 -24 -18 -41 -40z"/>
<path d="M2766 547 c-12 -9 -17 -20 -13 -31 6 -15 15 -17 57 -11 79 11 119
-24 88 -75 -11 -17 -10 -22 2 -30 27 -18 45 -7 47 30 0 19 3 42 5 50 2 8 -9
18 -28 25 -16 5 -42 18 -57 28 -39 25 -79 31 -101 14z"/>
<path d="M3000 551 c0 -17 40 -33 67 -26 13 3 23 11 20 18 -4 15 -87 22 -87 8z"/>
<path d="M3825 530 c-3 -5 -3 -19 0 -30 5 -16 -1 -23 -29 -36 -27 -14 -35 -23
-34 -43 1 -14 -2 -34 -6 -43 -7 -15 -3 -18 22 -18 17 0 37 3 46 6 20 8 21 44
1 44 -34 0 -8 40 36 54 36 12 59 40 44 55 -16 15 -72 23 -80 11z"/>
<path d="M2542 508 c4 -33 99 -64 145 -48 23 8 38 8 52 1 25 -14 81 -14 81 -1
0 5 -12 13 -27 16 -16 4 -32 10 -38 15 -5 4 -47 6 -92 4 -74 -4 -83 -2 -88 15
-9 28 -37 26 -33 -2z"/>
<path d="M3205 521 c-7 -13 33 -34 51 -27 8 3 14 12 14 21 0 17 -55 22 -65 6z"/>
<path d="M3456 518 c-12 -7 -44 -8 -88 -4 -46 4 -67 3 -63 -4 3 -5 14 -10 23
-10 10 0 27 -7 39 -15 39 -28 149 2 128 35 -8 13 -15 12 -39 -2z"/>
<path d="M3693 509 c-5 -19 -11 -21 -60 -17 -65 6 -82 -13 -40 -44 15 -11 24
-25 20 -34 -3 -8 0 -21 7 -29 6 -8 9 -18 6 -24 -3 -5 0 -11 8 -14 27 -10 53 5
64 37 16 43 15 46 -7 46 -33 0 -35 20 -3 32 29 11 57 50 45 62 -13 13 -35 5
-40 -15z"/>
<path d="M4144 519 c-10 -18 13 -32 40 -25 37 9 34 36 -3 36 -17 0 -33 -5 -37
-11z"/>
<path d="M3938 472 c-57 -20 -83 -44 -74 -67 5 -14 14 -16 48 -11 51 8 57 12
68 42 5 13 17 24 26 24 19 0 13 24 -7 27 -8 1 -35 -6 -61 -15z"/>
<path d="M3531 451 c-19 -12 -6 -43 16 -39 21 4 31 48 11 48 -7 0 -19 -4 -27
-9z"/>
<path d="M3990 420 l-21 -30 23 0 c40 0 66 41 33 53 -9 4 -22 -5 -35 -23z"/>
<path d="M2774 425 c11 -8 36 -15 55 -15 34 1 35 2 17 15 -11 8 -36 15 -55 15
-34 -1 -35 -2 -17 -15z"/>
<path d="M3105 393 c-16 -2 -41 -6 -55 -10 l-25 -6 25 -7 c40 -12 105 -11 118
2 27 27 14 31 -63 21z"/>
</g>
</svg>
