<svg xmlns="http://www.w3.org/2000/svg" xmlns:xlink="http://www.w3.org/1999/xlink" version="1.1" id="Layer_1" x="0px" y="0px" style="enable-background:new 0 0 1080 1080;" xml:space="preserve" viewBox="146.7 409.3 814.9 261.6">
<style type="text/css">
	.st0{fill:#F9B928;}
	.st1{fill:#0D3C5D;}
	.st2{fill:#FFFFFF;}
	.st3{fill:#212121;}
	.st4{fill:#F7A42B;}
</style>
<g>
	<g>
		<g>
			<g>
				<path class="st2" d="M515.5,537.2c0,17.4-2,34.1-5.9,49.7c-3.9,15.7-9.7,29.8-17.1,42c-8.3,13.6-18.1,24-29.2,31.1      c-11.2,7.2-23.4,10.8-36.4,10.8c-12.9,0-24.4-3.8-34.3-11.3c-7.4-5.4-13.7-13.1-18.6-22.9c-1.9-3.9-3.5-7.7-4.7-11.4      c-1.3-3.7-2.2-7-2.8-9.9c-0.6-2.9-1-5.3-1.3-7.2c-0.4-2.9-0.4-3.1-0.4-3.3v-2.4l28.2-2.5l0.3,2.5c0.3,2.6,0.7,5,1.2,7      c0.5,2,1.2,4.4,2.1,7c0.9,2.5,2,5.2,3.3,7.8c6.1,12,14.9,17.8,26.9,17.8c8.2,0,16-2.6,23.1-7.8c7.3-5.3,13.8-12.8,19.2-22.1      c5.5-9.4,9.9-20.6,13-33.4c3.1-12.8,4.7-26.8,4.7-41.6c0-14.5-1.7-28.2-5.2-40.7c-3.4-12.5-8.4-23.5-14.7-32.8      c-5.7-8.3-12.3-14.8-19.5-19.1c-7.2-4.3-14.9-6.5-23.1-6.5c-4,0-7.9,0.7-11.3,2.2c-3.6,1.5-7.1,3.6-10.5,6.2      c-3.5,2.7-6.9,5.7-10.2,9.1c-3.4,3.5-6.8,7.1-10.1,10.9c-3.7,4-7.4,8-11.2,11.8c-3.8,3.9-7.9,7.4-12.1,10.6      c-4.3,3.2-8.9,5.8-13.7,7.8c-4.9,2-10.4,3.1-16.2,3.1c-5.8,0-11.3-1.1-16.2-3.2c-4.8-2.1-9.4-4.7-13.5-7.9      c-4.1-3.1-7.9-6.7-11.4-10.8c-3.4-3.9-6.6-7.8-9.9-11.6c-3-3.8-6.1-7.4-9.2-10.9c-3-3.4-6.2-6.4-9.4-9c-3.2-2.5-6.5-4.6-10-6      c-3.4-1.5-7.2-2.2-11.2-2.2c-8.7,0-17,2.5-24.5,7.4c-7.7,5-14.4,11.9-20,20.6c-5.7,8.8-10.2,19.4-13.5,31.5      c-3.3,12.1-4.9,25.5-4.9,39.7c0,14.8,1.6,28.8,4.8,41.5c3.2,12.7,7.6,24,13.1,33.4c5.4,9.3,11.9,16.7,19.2,22.1      c7.1,5.2,14.8,7.8,22.9,7.8c5,0,9.5-1,13.2-3c3.8-2.1,7.2-4.7,10.1-7.7c2.8-3.1,5.3-6.5,7.1-10.1c1.9-3.8,3.4-7.3,4.5-10.4      c1.1-3.2,1.9-5.8,2.4-8c0.5-2.1,0.7-2.8,0.7-3.1v-2.8l28.3,4.5v2.2c0,0.3,0,0.5-0.6,3.5c-0.4,1.9-1.1,4.4-2,7.4      c-0.9,3-2.2,6.4-3.6,10.1c-1.5,3.8-3.3,7.6-5.5,11.5c-6.3,11.3-14.1,20-23.3,25.8c-9.2,5.9-19.8,8.9-31.3,8.9      c-12.8,0-25-3.6-36.3-10.8c-11.2-7.1-21-17.6-29.3-31.1c-7.4-12.2-13.2-26.3-17.1-42c-3.9-15.6-5.9-32.3-5.9-49.7      c0-17.2,2.2-33.7,6.4-49.1c4.2-15.4,10.4-29.1,18.3-40.7c8.4-12.2,18.5-21.7,29.9-28.2c11.5-6.6,23.9-10,37-10      c7.5,0,14.4,1.3,20.5,3.7c6.1,2.5,11.7,5.6,16.6,9.4c4.9,3.7,9.4,7.9,13.5,12.5c4,4.4,7.8,8.8,11.3,13.1      c5.1,6.3,10.1,11.9,15,16.6c4.5,4.4,9,6.5,13.8,6.5c2.5,0,5-0.6,7.3-1.7c2.5-1.2,5.1-2.9,7.7-5c2.6-2.2,5.4-4.8,8.1-7.7      c2.8-2.9,5.7-6.1,8.8-9.5c4-4.3,8.1-8.7,12.4-13.1c4.3-4.5,9.1-8.6,14.2-12.3c5.1-3.7,10.7-6.7,16.7-9      c6.1-2.3,12.9-3.5,20.1-3.5c12.9,0,25.2,3.4,36.6,10c11.3,6.6,21.4,16.1,29.8,28.2l0,0c7.9,11.6,14,25.3,18.3,40.7      C513.4,503.4,515.5,519.9,515.5,537.2z"/>
			</g>
		</g>
		<g>
			<g>
				<g>
					<path class="st4" d="M399.4,575c-21.5,0-38.9-17.5-38.9-38.9c0-21.5,17.5-38.9,38.9-38.9c21.5,0,38.9,17.5,38.9,38.9       C438.3,557.5,420.8,575,399.4,575z M399.4,516.8c-10.6,0-19.3,8.6-19.3,19.3s8.6,19.3,19.3,19.3c10.6,0,19.3-8.6,19.3-19.3       S410,516.8,399.4,516.8z"/>
				</g>
				<g>
					<path class="st4" d="M262.9,575.6c-21.5,0-38.9-17.5-38.9-38.9s17.5-38.9,38.9-38.9s38.9,17.5,38.9,38.9       S284.4,575.6,262.9,575.6z M262.9,517.5c-10.6,0-19.3,8.6-19.3,19.3s8.6,19.3,19.3,19.3s19.3-8.6,19.3-19.3       S273.6,517.5,262.9,517.5z"/>
				</g>
			</g>
		</g>
	</g>
	<g>
		<g>
			<path class="st2" d="M605.5,567.4h-22.7v-32.6c0-2.5-0.3-4.2-0.8-5.2c-0.5-1-1.5-1.5-2.9-1.5c-2.5,0-3.8,2.2-3.8,6.7v32.6h-22.7     v-32.6c0-2.5-0.3-4.2-0.8-5.2c-0.5-1-1.5-1.5-2.9-1.5c-2.5,0-3.8,2.2-3.8,6.7v32.6h-22.7v-37.3c0-6.8,2.3-12.6,6.9-17.3     c4.6-4.8,10.1-7.1,16.6-7.1c6.7,0,12.7,2.8,18.1,8.5c5.9-5.7,11.9-8.5,17.8-8.5c7.6,0,13.6,2.8,18.2,8.3     c3.6,4.3,5.4,10.5,5.4,18.7V567.4z"/>
			<path class="st2" d="M672.7,540.9h-34.4c-0.5-1.7-0.8-3.3-0.8-4.8c0-2,0.4-4,1.1-5.9h11.5c-0.8-4.5-3.3-6.7-7.6-6.7     c-2.8,0-5.1,1.2-6.9,3.6c-1.8,2.4-2.7,5.5-2.7,9.3c0,3.9,0.9,7.1,2.6,9.5s4,3.6,6.8,3.6c2.3,0,4.4-1.1,6.6-3.4l12.9,15.5     c-6,4.7-12.7,7.1-20.1,7.1c-9,0-16.5-3-22.6-9c-6.1-6-9.2-13.5-9.2-22.4c0-8.9,3.1-16.3,9.3-22.4c6.2-6.1,13.7-9.2,22.7-9.2     c8.8,0,16.1,3,22.1,8.9c6,6,8.9,13.3,8.9,22.1C673,537.5,672.9,538.9,672.7,540.9z"/>
			<path class="st2" d="M759.7,567.4H737v-32.6c0-2.5-0.3-4.2-0.8-5.2c-0.5-1-1.5-1.5-2.9-1.5c-2.5,0-3.8,2.2-3.8,6.7v32.6h-22.7     v-32.6c0-2.5-0.3-4.2-0.8-5.2c-0.5-1-1.5-1.5-2.9-1.5c-2.5,0-3.8,2.2-3.8,6.7v32.6h-22.7v-37.3c0-6.8,2.3-12.6,6.9-17.3     c4.6-4.8,10.1-7.1,16.6-7.1c6.7,0,12.7,2.8,18.1,8.5c5.9-5.7,11.9-8.5,17.8-8.5c7.6,0,13.6,2.8,18.2,8.3     c3.6,4.3,5.4,10.5,5.4,18.7V567.4z"/>
			<path class="st2" d="M790.2,484.6v25.3c3.8-2.8,7.7-4.2,11.5-4.2c5.8,0,10.4,2.1,13.9,6.3c3.4,4.2,5.1,9.9,5.1,17v38.3H798v-32     c0-2.6-0.3-4.3-0.8-5.2c-0.5-0.9-1.6-1.3-3.2-1.3c-2.5,0-3.8,1.9-3.8,5.6v32.9h-22.7v-82.8H790.2z"/>
			<path class="st2" d="M851.1,506.9v60.5h-22.7v-60.5H851.1z M839.9,479.9c3.1,0,5.7,1.1,8,3.2c2.2,2.2,3.4,4.7,3.4,7.7     c0,3.2-1.1,5.7-3.2,7.8s-4.8,3-8.2,3s-6-1-8.2-3c-2.1-2-3.2-4.6-3.2-7.8c0-3,1.1-5.5,3.4-7.7C834.1,481,836.8,479.9,839.9,479.9z     "/>
			<path class="st2" d="M892.2,506.3v24.3c-1.6-0.9-3-1.3-4.3-1.3c-4.1,0-6.2,3.2-6.2,9.5v28.7H859v-33.1c0-8.7,2.4-15.7,7.2-20.9     c4.8-5.2,11.1-7.8,19.1-7.8C887.1,505.7,889.4,505.9,892.2,506.3z"/>
		</g>
		<g>
			<path class="st4" d="M938.5,520.7h-19.8c-0.3-1-0.5-1.9-0.5-2.8c0-1.2,0.2-2.3,0.6-3.4h6.6c-0.5-2.6-1.9-3.9-4.4-3.9     c-1.6,0-3,0.7-4,2.1c-1,1.4-1.5,3.2-1.5,5.3c0,2.3,0.5,4.1,1.5,5.5c1,1.4,2.3,2.1,3.9,2.1c1.3,0,2.6-0.7,3.8-2l7.4,8.9     c-3.5,2.7-7.3,4.1-11.5,4.1c-5.2,0-9.5-1.7-13-5.2c-3.5-3.5-5.3-7.8-5.3-12.9c0-5.1,1.8-9.4,5.3-12.9c3.5-3.5,7.9-5.3,13.1-5.3     c5,0,9.3,1.7,12.7,5.1c3.4,3.4,5.1,7.7,5.1,12.7C938.6,518.8,938.6,519.6,938.5,520.7z"/>
			<path class="st4" d="M955.5,488.4v13.3h5.9v13.8h-5.9c0,2.8,0.4,4.7,1.3,5.7c0.9,1,2.5,1.6,4.8,1.6v13.7c-0.7,0-1.2,0-1.5,0     c-3,0-5.7-0.7-8.4-2.1c-2.6-1.4-4.7-3.2-6.3-5.6c-2-3-3-7-3-11.9v-28.6H955.5z"/>
		</g>
	</g>
</g>
</svg>